<svg width="46" height="53" viewBox="0 0 46 53" fill="none" xmlns="http://www.w3.org/2000/svg">
<g filter="url(#filter0_ddddd_4109_218)">
<mask id="path-1-inside-1_4109_218" fill="white">
<path d="M40.475 16.5036C39.8018 15.8001 39.1054 15.0751 38.8429 14.4376C38.6 13.8536 38.5857 12.8858 38.5714 11.9483C38.5446 10.2054 38.5161 8.23042 37.1429 6.8572C35.7696 5.48399 33.7946 5.45542 32.0518 5.42863C31.1143 5.41435 30.1464 5.40006 29.5625 5.1572C28.9268 4.8947 28.2 4.19827 27.4964 3.52506C26.2643 2.34113 24.8643 1.00006 23 1.00006C21.1357 1.00006 19.7375 2.34113 18.5036 3.52506C17.8 4.19827 17.075 4.8947 16.4375 5.1572C15.8571 5.40006 14.8857 5.41435 13.9482 5.42863C12.2054 5.45542 10.2304 5.48399 8.85714 6.8572C7.48393 8.23042 7.46428 10.2054 7.42857 11.9483C7.41428 12.8858 7.4 13.8536 7.15714 14.4376C6.89464 15.0733 6.19821 15.8001 5.525 16.5036C4.34107 17.7358 3 19.1358 3 21.0001C3 22.8643 4.34107 24.2626 5.525 25.4965C6.19821 26.2001 6.89464 26.9251 7.15714 27.5626C7.4 28.1465 7.41428 29.1143 7.42857 30.0518C7.45536 31.7947 7.48393 33.7697 8.85714 35.1429C10.2304 36.5161 12.2054 36.5447 13.9482 36.5715C14.8857 36.5858 15.8536 36.6001 16.4375 36.8429C17.0732 37.1054 17.8 37.8018 18.5036 38.4751C19.7357 39.659 21.1357 41.0001 23 41.0001C24.8643 41.0001 26.2625 39.659 27.4964 38.4751C28.2 37.8018 28.925 37.1054 29.5625 36.8429C30.1464 36.6001 31.1143 36.5858 32.0518 36.5715C33.7946 36.5447 35.7696 36.5161 37.1429 35.1429C38.5161 33.7697 38.5446 31.7947 38.5714 30.0518C38.5857 29.1143 38.6 28.1465 38.8429 27.5626C39.1054 26.9268 39.8018 26.2001 40.475 25.4965C41.6589 24.2643 43 22.8643 43 21.0001C43 19.1358 41.6589 17.7376 40.475 16.5036ZM31.1536 17.7251L21.1536 27.7251C21.0209 27.8579 20.8633 27.9633 20.6899 28.0351C20.5165 28.107 20.3306 28.144 20.1429 28.144C19.9551 28.144 19.7692 28.107 19.5958 28.0351C19.4224 27.9633 19.2648 27.8579 19.1321 27.7251L14.8464 23.4393C14.5784 23.1713 14.4278 22.8077 14.4278 22.4286C14.4278 22.0495 14.5784 21.686 14.8464 21.4179C15.1145 21.1499 15.4781 20.9993 15.8571 20.9993C16.2362 20.9993 16.5998 21.1499 16.8679 21.4179L20.1429 24.6947L29.1321 15.7036C29.2649 15.5709 29.4224 15.4656 29.5959 15.3938C29.7693 15.322 29.9551 15.285 30.1429 15.285C30.3306 15.285 30.5164 15.322 30.6898 15.3938C30.8633 15.4656 31.0208 15.5709 31.1536 15.7036C31.2863 15.8364 31.3916 15.9939 31.4634 16.1674C31.5352 16.3408 31.5722 16.5266 31.5722 16.7143C31.5722 16.9021 31.5352 17.0879 31.4634 17.2613C31.3916 17.4348 31.2863 17.5923 31.1536 17.7251Z"/>
</mask>
<path d="M40.475 16.5036C39.8018 15.8001 39.1054 15.0751 38.8429 14.4376C38.6 13.8536 38.5857 12.8858 38.5714 11.9483C38.5446 10.2054 38.5161 8.23042 37.1429 6.8572C35.7696 5.48399 33.7946 5.45542 32.0518 5.42863C31.1143 5.41435 30.1464 5.40006 29.5625 5.1572C28.9268 4.8947 28.2 4.19827 27.4964 3.52506C26.2643 2.34113 24.8643 1.00006 23 1.00006C21.1357 1.00006 19.7375 2.34113 18.5036 3.52506C17.8 4.19827 17.075 4.8947 16.4375 5.1572C15.8571 5.40006 14.8857 5.41435 13.9482 5.42863C12.2054 5.45542 10.2304 5.48399 8.85714 6.8572C7.48393 8.23042 7.46428 10.2054 7.42857 11.9483C7.41428 12.8858 7.4 13.8536 7.15714 14.4376C6.89464 15.0733 6.19821 15.8001 5.525 16.5036C4.34107 17.7358 3 19.1358 3 21.0001C3 22.8643 4.34107 24.2626 5.525 25.4965C6.19821 26.2001 6.89464 26.9251 7.15714 27.5626C7.4 28.1465 7.41428 29.1143 7.42857 30.0518C7.45536 31.7947 7.48393 33.7697 8.85714 35.1429C10.2304 36.5161 12.2054 36.5447 13.9482 36.5715C14.8857 36.5858 15.8536 36.6001 16.4375 36.8429C17.0732 37.1054 17.8 37.8018 18.5036 38.4751C19.7357 39.659 21.1357 41.0001 23 41.0001C24.8643 41.0001 26.2625 39.659 27.4964 38.4751C28.2 37.8018 28.925 37.1054 29.5625 36.8429C30.1464 36.6001 31.1143 36.5858 32.0518 36.5715C33.7946 36.5447 35.7696 36.5161 37.1429 35.1429C38.5161 33.7697 38.5446 31.7947 38.5714 30.0518C38.5857 29.1143 38.6 28.1465 38.8429 27.5626C39.1054 26.9268 39.8018 26.2001 40.475 25.4965C41.6589 24.2643 43 22.8643 43 21.0001C43 19.1358 41.6589 17.7376 40.475 16.5036ZM31.1536 17.7251L21.1536 27.7251C21.0209 27.8579 20.8633 27.9633 20.6899 28.0351C20.5165 28.107 20.3306 28.144 20.1429 28.144C19.9551 28.144 19.7692 28.107 19.5958 28.0351C19.4224 27.9633 19.2648 27.8579 19.1321 27.7251L14.8464 23.4393C14.5784 23.1713 14.4278 22.8077 14.4278 22.4286C14.4278 22.0495 14.5784 21.686 14.8464 21.4179C15.1145 21.1499 15.4781 20.9993 15.8571 20.9993C16.2362 20.9993 16.5998 21.1499 16.8679 21.4179L20.1429 24.6947L29.1321 15.7036C29.2649 15.5709 29.4224 15.4656 29.5959 15.3938C29.7693 15.322 29.9551 15.285 30.1429 15.285C30.3306 15.285 30.5164 15.322 30.6898 15.3938C30.8633 15.4656 31.0208 15.5709 31.1536 15.7036C31.2863 15.8364 31.3916 15.9939 31.4634 16.1674C31.5352 16.3408 31.5722 16.5266 31.5722 16.7143C31.5722 16.9021 31.5352 17.0879 31.4634 17.2613C31.3916 17.4348 31.2863 17.5923 31.1536 17.7251Z" fill="#45B442"/>
<path d="M40.475 16.5036C39.8018 15.8001 39.1054 15.0751 38.8429 14.4376C38.6 13.8536 38.5857 12.8858 38.5714 11.9483C38.5446 10.2054 38.5161 8.23042 37.1429 6.8572C35.7696 5.48399 33.7946 5.45542 32.0518 5.42863C31.1143 5.41435 30.1464 5.40006 29.5625 5.1572C28.9268 4.8947 28.2 4.19827 27.4964 3.52506C26.2643 2.34113 24.8643 1.00006 23 1.00006C21.1357 1.00006 19.7375 2.34113 18.5036 3.52506C17.8 4.19827 17.075 4.8947 16.4375 5.1572C15.8571 5.40006 14.8857 5.41435 13.9482 5.42863C12.2054 5.45542 10.2304 5.48399 8.85714 6.8572C7.48393 8.23042 7.46428 10.2054 7.42857 11.9483C7.41428 12.8858 7.4 13.8536 7.15714 14.4376C6.89464 15.0733 6.19821 15.8001 5.525 16.5036C4.34107 17.7358 3 19.1358 3 21.0001C3 22.8643 4.34107 24.2626 5.525 25.4965C6.19821 26.2001 6.89464 26.9251 7.15714 27.5626C7.4 28.1465 7.41428 29.1143 7.42857 30.0518C7.45536 31.7947 7.48393 33.7697 8.85714 35.1429C10.2304 36.5161 12.2054 36.5447 13.9482 36.5715C14.8857 36.5858 15.8536 36.6001 16.4375 36.8429C17.0732 37.1054 17.8 37.8018 18.5036 38.4751C19.7357 39.659 21.1357 41.0001 23 41.0001C24.8643 41.0001 26.2625 39.659 27.4964 38.4751C28.2 37.8018 28.925 37.1054 29.5625 36.8429C30.1464 36.6001 31.1143 36.5858 32.0518 36.5715C33.7946 36.5447 35.7696 36.5161 37.1429 35.1429C38.5161 33.7697 38.5446 31.7947 38.5714 30.0518C38.5857 29.1143 38.6 28.1465 38.8429 27.5626C39.1054 26.9268 39.8018 26.2001 40.475 25.4965C41.6589 24.2643 43 22.8643 43 21.0001C43 19.1358 41.6589 17.7376 40.475 16.5036ZM31.1536 17.7251L21.1536 27.7251C21.0209 27.8579 20.8633 27.9633 20.6899 28.0351C20.5165 28.107 20.3306 28.144 20.1429 28.144C19.9551 28.144 19.7692 28.107 19.5958 28.0351C19.4224 27.9633 19.2648 27.8579 19.1321 27.7251L14.8464 23.4393C14.5784 23.1713 14.4278 22.8077 14.4278 22.4286C14.4278 22.0495 14.5784 21.686 14.8464 21.4179C15.1145 21.1499 15.4781 20.9993 15.8571 20.9993C16.2362 20.9993 16.5998 21.1499 16.8679 21.4179L20.1429 24.6947L29.1321 15.7036C29.2649 15.5709 29.4224 15.4656 29.5959 15.3938C29.7693 15.322 29.9551 15.285 30.1429 15.285C30.3306 15.285 30.5164 15.322 30.6898 15.3938C30.8633 15.4656 31.0208 15.5709 31.1536 15.7036C31.2863 15.8364 31.3916 15.9939 31.4634 16.1674C31.5352 16.3408 31.5722 16.5266 31.5722 16.7143C31.5722 16.9021 31.5352 17.0879 31.4634 17.2613C31.3916 17.4348 31.2863 17.5923 31.1536 17.7251Z" stroke="white" stroke-width="4" mask="url(#path-1-inside-1_4109_218)"/>
</g>
<defs>
<filter id="filter0_ddddd_4109_218" x="0" y="6.10948e-05" width="46" height="56" filterUnits="userSpaceOnUse" color-interpolation-filters="sRGB">
<feFlood flood-opacity="0" result="BackgroundImageFix"/>
<feColorMatrix in="SourceAlpha" type="matrix" values="0 0 0 0 0 0 0 0 0 0 0 0 0 0 0 0 0 0 127 0" result="hardAlpha"/>
<feOffset/>
<feGaussianBlur stdDeviation="0.5"/>
<feColorMatrix type="matrix" values="0 0 0 0 0 0 0 0 0 0 0 0 0 0 0 0 0 0 0.29 0"/>
<feBlend mode="normal" in2="BackgroundImageFix" result="effect1_dropShadow_4109_218"/>
<feColorMatrix in="SourceAlpha" type="matrix" values="0 0 0 0 0 0 0 0 0 0 0 0 0 0 0 0 0 0 127 0" result="hardAlpha"/>
<feOffset dy="2"/>
<feGaussianBlur stdDeviation="1"/>
<feColorMatrix type="matrix" values="0 0 0 0 0 0 0 0 0 0 0 0 0 0 0 0 0 0 0.26 0"/>
<feBlend mode="normal" in2="effect1_dropShadow_4109_218" result="effect2_dropShadow_4109_218"/>
<feColorMatrix in="SourceAlpha" type="matrix" values="0 0 0 0 0 0 0 0 0 0 0 0 0 0 0 0 0 0 127 0" result="hardAlpha"/>
<feOffset dy="4"/>
<feGaussianBlur stdDeviation="1.5"/>
<feColorMatrix type="matrix" values="0 0 0 0 0 0 0 0 0 0 0 0 0 0 0 0 0 0 0.15 0"/>
<feBlend mode="normal" in2="effect2_dropShadow_4109_218" result="effect3_dropShadow_4109_218"/>
<feColorMatrix in="SourceAlpha" type="matrix" values="0 0 0 0 0 0 0 0 0 0 0 0 0 0 0 0 0 0 127 0" result="hardAlpha"/>
<feOffset dy="8"/>
<feGaussianBlur stdDeviation="1.5"/>
<feColorMatrix type="matrix" values="0 0 0 0 0 0 0 0 0 0 0 0 0 0 0 0 0 0 0.04 0"/>
<feBlend mode="normal" in2="effect3_dropShadow_4109_218" result="effect4_dropShadow_4109_218"/>
<feColorMatrix in="SourceAlpha" type="matrix" values="0 0 0 0 0 0 0 0 0 0 0 0 0 0 0 0 0 0 127 0" result="hardAlpha"/>
<feOffset dy="12"/>
<feGaussianBlur stdDeviation="1.5"/>
<feColorMatrix type="matrix" values="0 0 0 0 0 0 0 0 0 0 0 0 0 0 0 0 0 0 0.01 0"/>
<feBlend mode="normal" in2="effect4_dropShadow_4109_218" result="effect5_dropShadow_4109_218"/>
<feBlend mode="normal" in="SourceGraphic" in2="effect5_dropShadow_4109_218" result="shape"/>
</filter>
</defs>
</svg>
