<svg width="76" height="90" viewBox="0 0 76 90" fill="none" xmlns="http://www.w3.org/2000/svg">
<g filter="url(#filter0_ddddd_2130_526)">
<mask id="path-1-inside-1_2130_526" fill="white">
<path d="M65.7159 20.1432H54.6665C54.7894 20.0392 54.9153 19.9384 55.035 19.8282C55.9917 18.9783 56.7626 17.9402 57.2997 16.7787C57.8368 15.6173 58.1285 14.3575 58.1565 13.0782C58.1978 11.6787 57.9527 10.2855 57.4362 8.98408C56.9197 7.68271 56.1426 6.50064 55.1527 5.51044C54.1628 4.52024 52.9809 3.74282 51.6797 3.22589C50.3785 2.70896 48.9854 2.46344 47.5858 2.5044C46.306 2.53196 45.0456 2.82342 43.8836 3.36053C42.7216 3.89764 41.6829 4.66883 40.8327 5.62583C39.6562 6.98935 38.6997 8.52817 37.9979 10.1867C37.296 8.52817 36.3396 6.98935 35.1631 5.62583C34.3128 4.66883 33.2742 3.89764 32.1122 3.36053C30.9502 2.82342 29.6898 2.53196 28.41 2.5044C27.0104 2.46344 25.6173 2.70896 24.316 3.22589C23.0148 3.74282 21.833 4.52024 20.8431 5.51044C19.8532 6.50064 19.0761 7.68271 18.5596 8.98408C18.043 10.2855 17.7979 11.6787 17.8393 13.0782C17.8673 14.3575 18.159 15.6173 18.696 16.7787C19.2331 17.9402 20.0041 18.9783 20.9607 19.8282C21.0804 19.9321 21.2064 20.0329 21.3292 20.1432H10.2798C8.94322 20.1432 7.66137 20.6741 6.71625 21.6192C5.77113 22.5644 5.24017 23.8462 5.24017 25.1828V35.2621C5.24017 36.5987 5.77113 37.8806 6.71625 38.8257C7.66137 39.7708 8.94322 40.3018 10.2798 40.3018V60.4604C10.2798 61.7969 10.8108 63.0788 11.7559 64.0239C12.701 64.969 13.9829 65.5 15.3195 65.5H34.2181C34.5523 65.5 34.8728 65.3673 35.109 65.131C35.3453 64.8947 35.4781 64.5742 35.4781 64.2401V35.2621H10.2798V25.1828H35.4781V35.2621H40.5177V25.1828H65.7159V35.2621H40.5177V64.2401C40.5177 64.5742 40.6504 64.8947 40.8867 65.131C41.123 65.3673 41.4435 65.5 41.7776 65.5H60.6763C62.0129 65.5 63.2947 64.969 64.2399 64.0239C65.185 63.0788 65.7159 61.7969 65.7159 60.4604V40.3018C67.0525 40.3018 68.3344 39.7708 69.2795 38.8257C70.2246 37.8806 70.7556 36.5987 70.7556 35.2621V25.1828C70.7556 23.8462 70.2246 22.5644 69.2795 21.6192C68.3344 20.6741 67.0525 20.1432 65.7159 20.1432ZM24.2995 16.0485C23.8589 15.6495 23.5056 15.1637 23.2616 14.6217C23.0177 14.0796 22.8885 13.493 22.8821 12.8987C22.8662 12.2023 22.9894 11.5097 23.2445 10.8615C23.4997 10.2133 23.8816 9.62258 24.368 9.12389C24.8544 8.62521 25.4354 8.22861 26.077 7.95733C26.7185 7.68604 27.4078 7.54554 28.1044 7.54405H28.2588C28.8531 7.55046 29.4397 7.67968 29.9818 7.92359C30.5238 8.16751 31.0096 8.52086 31.4085 8.96145C34.0512 11.9474 34.9835 16.8989 35.3111 19.9605C32.2369 19.6361 27.2886 18.7037 24.2995 16.0485ZM51.7026 16.0485C48.7134 18.6943 43.7525 19.6266 40.6783 19.9542C41.0532 16.6438 42.0926 11.7962 44.6124 8.9646C45.0114 8.52401 45.4972 8.17066 46.0392 7.92674C46.5812 7.68283 47.1678 7.55361 47.7622 7.54719H47.9165C48.6132 7.55155 49.3019 7.69491 49.9424 7.96886C50.583 8.24282 51.1624 8.64186 51.6467 9.14261C52.131 9.64336 52.5105 10.2357 52.7629 10.885C53.0154 11.5343 53.1357 12.2275 53.1168 12.9239C53.1066 13.5142 52.9752 14.0961 52.7308 14.6336C52.4865 15.1711 52.1344 15.6526 51.6963 16.0485H51.7026Z"/>
</mask>
<path d="M65.7159 20.1432H54.6665C54.7894 20.0392 54.9153 19.9384 55.035 19.8282C55.9917 18.9783 56.7626 17.9402 57.2997 16.7787C57.8368 15.6173 58.1285 14.3575 58.1565 13.0782C58.1978 11.6787 57.9527 10.2855 57.4362 8.98408C56.9197 7.68271 56.1426 6.50064 55.1527 5.51044C54.1628 4.52024 52.9809 3.74282 51.6797 3.22589C50.3785 2.70896 48.9854 2.46344 47.5858 2.5044C46.306 2.53196 45.0456 2.82342 43.8836 3.36053C42.7216 3.89764 41.6829 4.66883 40.8327 5.62583C39.6562 6.98935 38.6997 8.52817 37.9979 10.1867C37.296 8.52817 36.3396 6.98935 35.1631 5.62583C34.3128 4.66883 33.2742 3.89764 32.1122 3.36053C30.9502 2.82342 29.6898 2.53196 28.41 2.5044C27.0104 2.46344 25.6173 2.70896 24.316 3.22589C23.0148 3.74282 21.833 4.52024 20.8431 5.51044C19.8532 6.50064 19.0761 7.68271 18.5596 8.98408C18.043 10.2855 17.7979 11.6787 17.8393 13.0782C17.8673 14.3575 18.159 15.6173 18.696 16.7787C19.2331 17.9402 20.0041 18.9783 20.9607 19.8282C21.0804 19.9321 21.2064 20.0329 21.3292 20.1432H10.2798C8.94322 20.1432 7.66137 20.6741 6.71625 21.6192C5.77113 22.5644 5.24017 23.8462 5.24017 25.1828V35.2621C5.24017 36.5987 5.77113 37.8806 6.71625 38.8257C7.66137 39.7708 8.94322 40.3018 10.2798 40.3018V60.4604C10.2798 61.7969 10.8108 63.0788 11.7559 64.0239C12.701 64.969 13.9829 65.5 15.3195 65.5H34.2181C34.5523 65.5 34.8728 65.3673 35.109 65.131C35.3453 64.8947 35.4781 64.5742 35.4781 64.2401V35.2621H10.2798V25.1828H35.4781V35.2621H40.5177V25.1828H65.7159V35.2621H40.5177V64.2401C40.5177 64.5742 40.6504 64.8947 40.8867 65.131C41.123 65.3673 41.4435 65.5 41.7776 65.5H60.6763C62.0129 65.5 63.2947 64.969 64.2399 64.0239C65.185 63.0788 65.7159 61.7969 65.7159 60.4604V40.3018C67.0525 40.3018 68.3344 39.7708 69.2795 38.8257C70.2246 37.8806 70.7556 36.5987 70.7556 35.2621V25.1828C70.7556 23.8462 70.2246 22.5644 69.2795 21.6192C68.3344 20.6741 67.0525 20.1432 65.7159 20.1432ZM24.2995 16.0485C23.8589 15.6495 23.5056 15.1637 23.2616 14.6217C23.0177 14.0796 22.8885 13.493 22.8821 12.8987C22.8662 12.2023 22.9894 11.5097 23.2445 10.8615C23.4997 10.2133 23.8816 9.62258 24.368 9.12389C24.8544 8.62521 25.4354 8.22861 26.077 7.95733C26.7185 7.68604 27.4078 7.54554 28.1044 7.54405H28.2588C28.8531 7.55046 29.4397 7.67968 29.9818 7.92359C30.5238 8.16751 31.0096 8.52086 31.4085 8.96145C34.0512 11.9474 34.9835 16.8989 35.3111 19.9605C32.2369 19.6361 27.2886 18.7037 24.2995 16.0485ZM51.7026 16.0485C48.7134 18.6943 43.7525 19.6266 40.6783 19.9542C41.0532 16.6438 42.0926 11.7962 44.6124 8.9646C45.0114 8.52401 45.4972 8.17066 46.0392 7.92674C46.5812 7.68283 47.1678 7.55361 47.7622 7.54719H47.9165C48.6132 7.55155 49.3019 7.69491 49.9424 7.96886C50.583 8.24282 51.1624 8.64186 51.6467 9.14261C52.131 9.64336 52.5105 10.2357 52.7629 10.885C53.0154 11.5343 53.1357 12.2275 53.1168 12.9239C53.1066 13.5142 52.9752 14.0961 52.7308 14.6336C52.4865 15.1711 52.1344 15.6526 51.6963 16.0485H51.7026Z" fill="#D658B3"/>
<path d="M54.6665 20.1432L52.4057 17.4713L45.1117 23.6432H54.6665V20.1432ZM55.035 19.8282L52.7104 17.2117L52.687 17.2325L52.6639 17.2538L55.035 19.8282ZM58.1565 13.0782L54.658 12.9748L54.6576 12.9882L54.6573 13.0016L58.1565 13.0782ZM47.5858 2.5044L47.6612 6.00359L47.6747 6.00329L47.6882 6.0029L47.5858 2.5044ZM40.8327 5.62583L38.2162 3.30121L38.1993 3.32017L38.1828 3.33937L40.8327 5.62583ZM37.9979 10.1867L34.7746 11.5507L37.9979 19.1676L41.2212 11.5507L37.9979 10.1867ZM35.1631 5.62583L37.813 3.33937L37.7964 3.32017L37.7796 3.30121L35.1631 5.62583ZM28.41 2.5044L28.3076 6.0029L28.3211 6.00329L28.3346 6.00359L28.41 2.5044ZM17.8393 13.0782L21.3385 13.0016L21.3382 12.9882L21.3378 12.9748L17.8393 13.0782ZM20.9607 19.8282L18.6361 22.4447L18.6509 22.4578L18.6658 22.4708L20.9607 19.8282ZM21.3292 20.1432V23.6432H30.4695L23.6669 17.5383L21.3292 20.1432ZM5.24017 25.1828H1.74017H5.24017ZM5.24017 35.2621H1.74017H5.24017ZM10.2798 40.3018H13.7798V36.8018H10.2798V40.3018ZM10.2798 60.4604L6.77982 60.4604L10.2798 60.4604ZM10.2798 35.2621H6.77982V38.7621H10.2798V35.2621ZM10.2798 25.1828V21.6828H6.77982V25.1828H10.2798ZM35.4781 25.1828H38.9781V21.6828H35.4781V25.1828ZM40.5177 25.1828V21.6828H37.0177V25.1828H40.5177ZM65.7159 25.1828H69.2159V21.6828H65.7159V25.1828ZM65.7159 35.2621V38.7621H69.2159V35.2621H65.7159ZM65.7159 40.3018V36.8018H62.2159V40.3018H65.7159ZM69.2795 38.8257L66.8046 36.3508L69.2795 38.8257ZM69.2795 21.6192L66.8046 24.0941L69.2795 21.6192ZM24.2995 16.0485L21.9502 18.6428L21.9626 18.654L21.9751 18.6651L24.2995 16.0485ZM22.8821 12.8987L26.3819 12.8609L26.3817 12.8398L26.3812 12.8186L22.8821 12.8987ZM28.1044 7.54405L28.1044 4.04404L28.0969 4.04405L28.1044 7.54405ZM28.2588 7.54405L28.2965 4.04425L28.2776 4.04405H28.2588V7.54405ZM31.4085 8.96145L34.0295 6.64184L34.0163 6.62691L34.0029 6.61213L31.4085 8.96145ZM35.3111 19.9605L34.9438 23.4411L39.2522 23.8958L38.7913 19.5881L35.3111 19.9605ZM51.7026 16.0485L54.0224 18.6693L60.9374 12.5485H51.7026V16.0485ZM40.6783 19.9542L37.2006 19.5604L36.7096 23.8969L41.0492 23.4345L40.6783 19.9542ZM44.6124 8.9646L42.0181 6.61527L42.0079 6.62653L41.9978 6.63788L44.6124 8.9646ZM47.7622 7.54719V4.04719H47.7433L47.7245 4.0474L47.7622 7.54719ZM47.9165 7.54719L47.9384 4.04726L47.9275 4.04719H47.9165V7.54719ZM53.1168 12.9239L49.6181 12.829L49.6176 12.846L49.6174 12.8631L53.1168 12.9239ZM51.6963 16.0485L49.3498 13.4515L42.6019 19.5485H51.6963V16.0485ZM65.7159 16.6432H54.6665V23.6432H65.7159V16.6432ZM56.9273 22.815C56.9519 22.7942 57.2151 22.5786 57.4062 22.4026L52.6639 17.2538C52.6606 17.2568 52.6452 17.2708 52.5996 17.3091C52.5763 17.3286 52.553 17.348 52.5189 17.3765C52.4876 17.4025 52.4476 17.4359 52.4057 17.4713L56.9273 22.815ZM57.3596 22.4447C58.6762 21.275 59.7373 19.8463 60.4765 18.2478L54.1229 15.3097C53.788 16.0341 53.3071 16.6816 52.7104 17.2117L57.3596 22.4447ZM60.4765 18.2478C61.2157 16.6493 61.6171 14.9155 61.6556 13.1548L54.6573 13.0016C54.6398 13.7995 54.4579 14.5853 54.1229 15.3097L60.4765 18.2478ZM61.6549 13.1816C61.7104 11.3054 61.3818 9.43755 60.6893 7.69286L54.1831 10.2753C54.5237 11.1334 54.6853 12.052 54.658 12.9748L61.6549 13.1816ZM60.6893 7.69286C59.9968 5.94817 58.955 4.36344 57.6279 3.03593L52.6774 7.98494C53.3301 8.63784 53.8425 9.41724 54.1831 10.2753L60.6893 7.69286ZM57.6279 3.03593C56.3008 1.70843 54.7164 0.666177 52.9719 -0.0268418L50.3875 6.47862C51.2455 6.81945 52.0247 7.33205 52.6774 7.98494L57.6279 3.03593ZM52.9719 -0.0268418C51.2274 -0.719859 49.3597 -1.04902 47.4834 -0.994105L47.6882 6.0029C48.611 5.97589 49.5296 6.13778 50.3875 6.47862L52.9719 -0.0268418ZM47.5104 -0.994791C45.749 -0.956851 44.0144 -0.555719 42.4151 0.183496L45.3521 6.53756C46.0768 6.20256 46.8629 6.02078 47.6612 6.00359L47.5104 -0.994791ZM42.4151 0.183496C40.8158 0.922711 39.3864 1.98409 38.2162 3.30121L43.4492 7.95045C43.9795 7.35356 44.6273 6.87256 45.3521 6.53756L42.4151 0.183496ZM38.1828 3.33937C36.7683 4.97867 35.6184 6.82872 34.7746 8.82271L41.2212 11.5507C41.7811 10.2276 42.5441 9.00004 43.4826 7.91229L38.1828 3.33937ZM41.2212 8.82271C40.3774 6.82872 39.2275 4.97867 37.813 3.33937L32.5132 7.91229C33.4517 9.00004 34.2147 10.2276 34.7746 11.5507L41.2212 8.82271ZM37.7796 3.30121C36.6094 1.9841 35.18 0.922712 33.5807 0.183496L30.6437 6.53756C31.3685 6.87256 32.0163 7.35356 32.5466 7.95045L37.7796 3.30121ZM33.5807 0.183496C31.9814 -0.55572 30.2468 -0.956851 28.4853 -0.994791L28.3346 6.00359C29.1328 6.02078 29.9189 6.20256 30.6437 6.53756L33.5807 0.183496ZM28.5123 -0.994105C26.636 -1.04902 24.7683 -0.719859 23.0239 -0.0268418L25.6082 6.47862C26.4662 6.13778 27.3848 5.97589 28.3076 6.0029L28.5123 -0.994105ZM23.0239 -0.0268418C21.2794 0.666176 19.6949 1.70843 18.3678 3.03593L23.3183 7.98494C23.971 7.33205 24.7503 6.81945 25.6082 6.47862L23.0239 -0.0268418ZM18.3678 3.03593C17.0407 4.36344 15.9989 5.94818 15.3064 7.69286L21.8127 10.2753C22.1533 9.41724 22.6656 8.63783 23.3183 7.98494L18.3678 3.03593ZM15.3064 7.69286C14.6139 9.43755 14.2854 11.3054 14.3408 13.1816L21.3378 12.9748C21.3105 12.052 21.4721 11.1334 21.8127 10.2753L15.3064 7.69286ZM14.3401 13.1548C14.3787 14.9155 14.7801 16.6493 15.5193 18.2478L21.8728 15.3097C21.5378 14.5853 21.3559 13.7995 21.3385 13.0016L14.3401 13.1548ZM15.5193 18.2478C16.2585 19.8463 17.3195 21.275 18.6361 22.4447L23.2853 17.2117C22.6887 16.6816 22.2078 16.0341 21.8728 15.3097L15.5193 18.2478ZM18.6658 22.4708C18.9821 22.7454 18.8426 22.6143 18.9916 22.748L23.6669 17.5383C23.5609 17.4431 23.4622 17.3599 23.3962 17.3044C23.3178 17.2385 23.288 17.2137 23.2556 17.1856L18.6658 22.4708ZM21.3292 16.6432H10.2798V23.6432H21.3292V16.6432ZM10.2798 16.6432C8.01496 16.6432 5.84287 17.5429 4.24138 19.1444L9.19113 24.0941C9.47987 23.8054 9.87148 23.6432 10.2798 23.6432V16.6432ZM4.24138 19.1444C2.63988 20.7459 1.74017 22.918 1.74017 25.1828L8.74017 25.1828C8.74017 24.7745 8.90239 24.3829 9.19113 24.0941L4.24138 19.1444ZM1.74017 25.1828V35.2621H8.74017V25.1828H1.74017ZM1.74017 35.2621C1.74017 37.527 2.63988 39.6991 4.24138 41.3006L9.19113 36.3508C8.90239 36.0621 8.74017 35.6704 8.74017 35.2621H1.74017ZM4.24138 41.3006C5.84287 42.902 8.01496 43.8018 10.2798 43.8018V36.8018C9.87148 36.8018 9.47987 36.6395 9.19113 36.3508L4.24138 41.3006ZM6.77982 40.3018V60.4604H13.7798V40.3018H6.77982ZM6.77982 60.4604C6.77982 62.7252 7.67953 64.8973 9.28103 66.4988L14.2308 61.549C13.942 61.2603 13.7798 60.8687 13.7798 60.4604L6.77982 60.4604ZM9.28103 66.4988C10.8825 68.1003 13.0546 69 15.3195 69V62C14.9111 62 14.5195 61.8378 14.2308 61.549L9.28103 66.4988ZM15.3195 69H34.2181V62H15.3195V69ZM34.2181 69C35.4805 69 36.6913 68.4985 37.5839 67.6059L32.6342 62.6561C33.0543 62.236 33.624 62 34.2181 62V69ZM37.5839 67.6059C38.4766 66.7132 38.9781 65.5025 38.9781 64.2401H31.9781C31.9781 63.646 32.2141 63.0762 32.6342 62.6561L37.5839 67.6059ZM38.9781 64.2401V35.2621H31.9781V64.2401H38.9781ZM35.4781 31.7621H10.2798V38.7621H35.4781V31.7621ZM13.7798 35.2621V25.1828H6.77982V35.2621H13.7798ZM10.2798 28.6828H35.4781V21.6828H10.2798V28.6828ZM31.9781 25.1828V35.2621H38.9781V25.1828H31.9781ZM35.4781 38.7621H40.5177V31.7621H35.4781V38.7621ZM44.0177 35.2621V25.1828H37.0177V35.2621H44.0177ZM40.5177 28.6828H65.7159V21.6828H40.5177V28.6828ZM62.2159 25.1828V35.2621H69.2159V25.1828H62.2159ZM65.7159 31.7621H40.5177V38.7621H65.7159V31.7621ZM37.0177 35.2621V64.2401H44.0177V35.2621H37.0177ZM37.0177 64.2401C37.0177 65.5025 37.5192 66.7132 38.4119 67.6059L43.3616 62.6561C43.7817 63.0762 44.0177 63.646 44.0177 64.2401H37.0177ZM38.4119 67.6059C39.3045 68.4985 40.5152 69 41.7776 69V62C42.3717 62 42.9415 62.236 43.3616 62.6561L38.4119 67.6059ZM41.7776 69H60.6763V62H41.7776V69ZM60.6763 69C62.9412 69 65.1132 68.1003 66.7147 66.4988L61.765 61.549C61.4762 61.8378 61.0846 62 60.6763 62V69ZM66.7147 66.4988C68.3162 64.8973 69.2159 62.7252 69.2159 60.4604H62.2159C62.2159 60.8687 62.0537 61.2603 61.765 61.549L66.7147 66.4988ZM69.2159 60.4604V40.3018H62.2159V60.4604H69.2159ZM65.7159 43.8018C67.9808 43.8018 70.1529 42.902 71.7544 41.3006L66.8046 36.3508C66.5159 36.6395 66.1243 36.8018 65.7159 36.8018V43.8018ZM71.7544 41.3006C73.3559 39.6991 74.2556 37.527 74.2556 35.2621H67.2556C67.2556 35.6704 67.0934 36.0621 66.8046 36.3508L71.7544 41.3006ZM74.2556 35.2621V25.1828H67.2556V35.2621H74.2556ZM74.2556 25.1828C74.2556 22.918 73.3559 20.7459 71.7544 19.1444L66.8046 24.0941C67.0934 24.3829 67.2556 24.7745 67.2556 25.1828H74.2556ZM71.7544 19.1444C70.1529 17.5429 67.9808 16.6432 65.7159 16.6432V23.6432C66.1243 23.6432 66.5159 23.8054 66.8046 24.0941L71.7544 19.1444ZM26.6488 13.4541C26.5658 13.379 26.4993 13.2875 26.4534 13.1854L20.0699 16.058C20.5118 17.04 21.152 17.92 21.9502 18.6428L26.6488 13.4541ZM26.4534 13.1854C26.4074 13.0833 26.3831 12.9729 26.3819 12.8609L19.3823 12.9364C19.3939 14.0132 19.628 15.076 20.0699 16.058L26.4534 13.1854ZM26.3812 12.8186C26.3759 12.5878 26.4167 12.3583 26.5013 12.1435L19.9878 9.57951C19.562 10.6611 19.3564 11.8167 19.383 12.9787L26.3812 12.8186ZM26.5013 12.1435C26.5859 11.9287 26.7124 11.7329 26.8736 11.5676L21.8624 6.68017C21.0508 7.51227 20.4135 8.49797 19.9878 9.57951L26.5013 12.1435ZM26.8736 11.5676C27.0348 11.4024 27.2274 11.2709 27.44 11.181L24.7139 4.73365C23.6434 5.1863 22.6739 5.84806 21.8624 6.68017L26.8736 11.5676ZM27.44 11.181C27.6526 11.0911 27.8811 11.0445 28.1119 11.044L28.0969 4.04405C26.9346 4.04655 25.7845 4.28099 24.7139 4.73365L27.44 11.181ZM28.1044 11.044H28.2588V4.04405H28.1044V11.044ZM28.221 11.0438C28.3329 11.045 28.4434 11.0694 28.5455 11.1153L31.418 4.73187C30.436 4.28997 29.3733 4.05586 28.2965 4.04425L28.221 11.0438ZM28.5455 11.1153C28.6476 11.1613 28.7391 11.2278 28.8142 11.3108L34.0029 6.61213C33.2801 5.81392 32.4 5.17377 31.418 4.73187L28.5455 11.1153ZM28.7876 11.2811C29.6415 12.2459 30.3476 13.6966 30.8785 15.4479C31.3984 17.163 31.6813 18.9341 31.831 20.3328L38.7913 19.5881C38.6133 17.9252 38.2664 15.6899 37.5775 13.4173C36.8996 11.181 35.8182 8.66296 34.0295 6.64184L28.7876 11.2811ZM35.6784 16.4798C34.2756 16.3318 32.5041 16.0497 30.79 15.5294C29.0404 14.9984 27.5905 14.2904 26.6239 13.4318L21.9751 18.6651C23.9977 20.4618 26.5164 21.5476 28.7568 22.2276C31.0327 22.9184 33.2724 23.2648 34.9438 23.4411L35.6784 16.4798ZM49.3828 13.4276C48.417 14.2825 46.964 14.9894 45.2085 15.5207C43.4893 16.0411 41.7127 16.3242 40.3075 16.4739L41.0492 23.4345C42.7182 23.2566 44.9592 22.9098 47.2362 22.2206C49.477 21.5424 51.999 20.4602 54.0224 18.6693L49.3828 13.4276ZM44.1561 20.348C44.3266 18.8427 44.6443 17.0351 45.1802 15.3285C45.7285 13.5825 46.4298 12.1872 47.2271 11.2913L41.9978 6.63788C40.2752 8.57361 39.1968 11.018 38.5018 13.2312C37.7944 15.4839 37.405 17.7553 37.2006 19.5604L44.1561 20.348ZM47.2068 11.3139C47.2819 11.231 47.3734 11.1644 47.4755 11.1185L44.6029 4.73502C43.6209 5.17692 42.7409 5.81706 42.0181 6.61527L47.2068 11.3139ZM47.4755 11.1185C47.5776 11.0725 47.688 11.0482 47.7999 11.047L47.7245 4.0474C46.6477 4.05901 45.5849 4.29312 44.6029 4.73502L47.4755 11.1185ZM47.7622 11.0472H47.9165V4.04719H47.7622V11.0472ZM47.8947 11.0471C48.1255 11.0486 48.3538 11.0961 48.5661 11.1869L51.3188 4.75085C50.2501 4.29373 49.1008 4.05453 47.9384 4.04726L47.8947 11.0471ZM48.5661 11.1869C48.7783 11.2777 48.9704 11.4099 49.1309 11.5759L54.1625 6.70934C53.3543 5.87381 52.3876 5.20797 51.3188 4.75085L48.5661 11.1869ZM49.1309 11.5759C49.2914 11.7418 49.4172 11.9382 49.5008 12.1533L56.0251 9.61673C55.6038 8.53332 54.9706 7.54488 54.1625 6.70934L49.1309 11.5759ZM49.5008 12.1533C49.5845 12.3685 49.6244 12.5982 49.6181 12.829L56.6155 13.0187C56.647 11.8567 56.4463 10.7001 56.0251 9.61673L49.5008 12.1533ZM49.6174 12.8631C49.6154 12.9742 49.5907 13.0838 49.5447 13.185L55.917 16.0821C56.3597 15.1084 56.5977 14.0542 56.6163 12.9847L49.6174 12.8631ZM49.5447 13.185C49.4986 13.2863 49.4323 13.377 49.3498 13.4515L54.0427 18.6454C54.8364 17.9283 55.4743 17.0559 55.917 16.0821L49.5447 13.185ZM51.6963 19.5485H51.7026V12.5485H51.6963V19.5485Z" fill="white" mask="url(#path-1-inside-1_2130_526)"/>
</g>
<defs>
<filter id="filter0_ddddd_2130_526" x="-0.00982714" y="0.75" width="76.0154" height="91" filterUnits="userSpaceOnUse" color-interpolation-filters="sRGB">
<feFlood flood-opacity="0" result="BackgroundImageFix"/>
<feColorMatrix in="SourceAlpha" type="matrix" values="0 0 0 0 0 0 0 0 0 0 0 0 0 0 0 0 0 0 127 0" result="hardAlpha"/>
<feOffset/>
<feGaussianBlur stdDeviation="0.875"/>
<feColorMatrix type="matrix" values="0 0 0 0 0 0 0 0 0 0 0 0 0 0 0 0 0 0 0.29 0"/>
<feBlend mode="normal" in2="BackgroundImageFix" result="effect1_dropShadow_2130_526"/>
<feColorMatrix in="SourceAlpha" type="matrix" values="0 0 0 0 0 0 0 0 0 0 0 0 0 0 0 0 0 0 127 0" result="hardAlpha"/>
<feOffset dy="3.5"/>
<feGaussianBlur stdDeviation="1.75"/>
<feColorMatrix type="matrix" values="0 0 0 0 0 0 0 0 0 0 0 0 0 0 0 0 0 0 0.26 0"/>
<feBlend mode="normal" in2="effect1_dropShadow_2130_526" result="effect2_dropShadow_2130_526"/>
<feColorMatrix in="SourceAlpha" type="matrix" values="0 0 0 0 0 0 0 0 0 0 0 0 0 0 0 0 0 0 127 0" result="hardAlpha"/>
<feOffset dy="7"/>
<feGaussianBlur stdDeviation="2.625"/>
<feColorMatrix type="matrix" values="0 0 0 0 0 0 0 0 0 0 0 0 0 0 0 0 0 0 0.15 0"/>
<feBlend mode="normal" in2="effect2_dropShadow_2130_526" result="effect3_dropShadow_2130_526"/>
<feColorMatrix in="SourceAlpha" type="matrix" values="0 0 0 0 0 0 0 0 0 0 0 0 0 0 0 0 0 0 127 0" result="hardAlpha"/>
<feOffset dy="14"/>
<feGaussianBlur stdDeviation="2.625"/>
<feColorMatrix type="matrix" values="0 0 0 0 0 0 0 0 0 0 0 0 0 0 0 0 0 0 0.04 0"/>
<feBlend mode="normal" in2="effect3_dropShadow_2130_526" result="effect4_dropShadow_2130_526"/>
<feColorMatrix in="SourceAlpha" type="matrix" values="0 0 0 0 0 0 0 0 0 0 0 0 0 0 0 0 0 0 127 0" result="hardAlpha"/>
<feOffset dy="21"/>
<feGaussianBlur stdDeviation="2.625"/>
<feColorMatrix type="matrix" values="0 0 0 0 0 0 0 0 0 0 0 0 0 0 0 0 0 0 0.01 0"/>
<feBlend mode="normal" in2="effect4_dropShadow_2130_526" result="effect5_dropShadow_2130_526"/>
<feBlend mode="normal" in="SourceGraphic" in2="effect5_dropShadow_2130_526" result="shape"/>
</filter>
</defs>
</svg>
