<svg width="196" height="80" viewBox="0 0 196 80" fill="none" xmlns="http://www.w3.org/2000/svg">
<path d="M34.792 30.8928C35.0939 30.7587 35.4126 30.6077 35.748 30.44C36.0163 30.3058 36.2679 30.1884 36.5027 30.0878C36.7375 29.9536 37.0058 29.8362 37.3077 29.7356L37.509 29.2325C37.6096 29.0647 37.6935 28.897 37.7606 28.7293C38.4314 27.1863 39.0687 25.5427 39.6725 23.7985C40.3098 22.0207 40.5614 20.0585 40.4272 17.9117C40.6285 17.4756 40.7794 17.0731 40.8801 16.7042C41.0142 16.3352 41.1149 15.9494 41.1819 15.5469C41.249 15.1109 41.2658 14.658 41.2323 14.1884C41.2323 13.6853 41.2155 12.9977 41.1819 12.1255C41.3832 11.7901 41.5509 11.3373 41.6851 10.7671C41.8528 10.1968 41.9031 9.6769 41.836 9.2073L41.6851 8.25133L42.6411 8.35196C42.574 8.21778 42.5237 8.10038 42.4901 7.99976L42.3895 7.69787C42.2553 7.39598 42.1379 7.11087 42.0373 6.84252C41.9702 6.54064 41.9702 6.22198 42.0373 5.88655C41.4335 5.48403 41.0142 4.89703 40.7794 4.12554C40.6453 3.8572 40.3266 3.58885 39.8235 3.32051C39.7564 3.28697 39.7061 3.25342 39.6725 3.21988C39.639 3.18634 39.5551 3.11925 39.4209 3.01862C39.1526 2.78382 39.0184 2.49871 39.0184 2.16328C38.9513 2.12973 38.8675 2.09619 38.7669 2.06265C38.6998 2.02911 38.6159 1.97879 38.5153 1.91171C38.1463 1.74399 37.7606 1.57628 37.358 1.40856C36.9555 1.24085 36.5698 1.15699 36.2008 1.15699C35.8318 1.15699 35.4796 1.25762 35.1442 1.45888C34.574 2.86768 33.8193 4.04168 32.8801 4.98089C31.9409 5.92009 30.9681 6.79221 29.9618 7.59724C29.4251 8.0333 28.9052 8.46936 28.4021 8.90542C27.9325 9.34147 27.3958 9.84462 26.792 10.4149C26.5237 10.4484 26.2553 10.549 25.987 10.7167C25.7186 10.8509 25.4503 11.0186 25.1819 11.2199C24.7794 11.4882 24.3434 11.7566 23.8738 12.0249C23.4377 12.2597 22.9513 12.3771 22.4146 12.3771C21.945 12.3771 21.4084 12.1423 20.8046 11.6727C20.7375 11.3708 20.704 11.1025 20.704 10.8677C20.704 10.5993 20.7207 10.3478 20.7543 10.113C20.8549 9.57628 20.8214 9.15699 20.6536 8.8551L20.6033 8.35196C20.771 7.9159 20.8381 7.49661 20.8046 7.0941C20.8046 6.69158 20.7207 6.30584 20.553 5.93686C20.4188 5.53435 20.2176 5.1486 19.9492 4.77963C19.7144 4.37711 19.4629 3.9746 19.1945 3.57208C18.9933 3.20311 18.7752 2.88445 18.5404 2.61611C18.2385 2.54902 17.9534 2.48194 17.6851 2.41485C17.4503 2.31422 17.1484 2.21359 16.7794 2.11296C16.5111 2.11296 16.3098 1.94525 16.1757 1.60982L16.075 1.05636C15.7396 0.653844 15.2029 0.301643 14.465 -0.000244141C13.3916 0.402272 12.5698 0.955731 11.9996 1.66013C11.4629 2.33099 10.8926 3.18634 10.2889 4.22617C10.0876 4.5616 9.86957 4.9138 9.63477 5.28277C9.43352 5.6182 9.19872 5.98718 8.93037 6.38969C8.59494 6.89284 8.17565 7.63078 7.67251 8.60353C7.20291 9.57628 6.69976 10.6497 6.16307 11.8237C5.62639 12.9641 5.0897 14.1549 4.55301 15.396C4.01632 16.6035 3.52995 17.7104 3.09389 18.7167C2.69138 19.723 2.35595 20.5448 2.0876 21.1821C1.81926 21.8195 1.68509 22.1549 1.68509 22.1884C1.3832 22.8928 1.21549 23.7314 1.18194 24.7042C1.18194 25.6434 1.2658 26.5826 1.43351 27.5218C1.63477 28.461 1.90312 29.3499 2.23855 30.1884C2.60752 30.9935 3.01003 31.6308 3.44609 32.1004C4.04987 32.201 4.48593 32.2513 4.75427 32.2513C5.3245 32.2513 5.77733 32.0668 6.11276 31.6979C6.44819 31.3624 6.90102 30.6077 7.47125 29.4337C7.53834 29.2325 7.57188 29.0144 7.57188 28.7796C7.60542 28.6119 7.62219 28.4442 7.62219 28.2765C7.65574 28.1088 7.70605 27.9411 7.77314 27.7733C7.87377 27.6056 7.99117 27.4547 8.12534 27.3205C8.29305 27.1528 8.444 26.9851 8.57817 26.8174C8.81297 26.6497 8.96391 26.4149 9.031 26.113C8.89683 25.8782 8.86329 25.6266 8.93037 25.3582C9.09809 24.8551 9.34966 24.4023 9.68509 23.9998C10.0205 23.5972 10.3392 23.245 10.6411 22.9432C10.6075 22.5406 10.6578 22.071 10.792 21.5343C10.9597 20.9641 11.1442 20.4107 11.3455 19.874C11.5467 19.3373 11.748 18.8677 11.9492 18.4652C12.1505 18.0291 12.3014 17.744 12.4021 17.6098L12.8046 16.9557L13.2071 17.7104C14.6159 20.5616 16.7291 21.9872 19.5467 21.9872C20.6536 21.9872 21.7773 21.8027 22.9178 21.4337C24.0918 21.0647 25.2323 20.5951 26.3392 20.0249C27.4796 19.4211 28.5698 18.7838 29.6096 18.113C30.6495 17.4086 31.6054 16.7377 32.4775 16.1004C32.5446 15.8991 32.6285 15.7817 32.7291 15.7482C32.8633 15.7146 32.9975 15.6979 33.1316 15.6979L33.5845 16.201C33.5845 16.5029 33.5006 16.7042 33.3329 16.8048C32.2595 20.5281 31.7396 23.5972 31.7731 26.0123C31.8402 28.4274 32.5279 30.1213 33.836 31.0941C34.205 31.0941 34.5237 31.027 34.792 30.8928Z" fill="#D658B3"/>
<path d="M70.9681 3.57208C71.0017 3.43791 71.0017 3.25342 70.9681 3.01862C70.3308 2.75028 69.7438 2.43162 69.2071 2.06265C68.704 1.66013 68.2847 1.17376 67.9492 0.603529C67.9828 0.905416 67.8989 1.00605 67.6977 0.905416C67.53 0.771244 67.379 0.855102 67.2448 1.15699C66.9765 1.15699 66.6914 1.00605 66.3895 0.704158C64.9807 0.972502 63.7228 1.17376 62.6159 1.30793C61.509 1.4421 60.4356 1.59305 59.3958 1.76076C58.3895 1.89493 57.3497 2.07942 56.2763 2.31422C55.2365 2.54902 54.0457 2.88445 52.704 3.32051C51.966 3.48823 51.2616 3.63917 50.5908 3.77334C49.9199 3.90751 49.2994 4.07523 48.7291 4.27649C48.1589 4.47774 47.6222 4.74609 47.1191 5.08152C46.6495 5.3834 46.2469 5.78592 45.9115 6.28906C46.0792 6.85929 46.1966 7.42952 46.2637 7.99976C46.3308 8.53644 46.4147 9.07313 46.5153 9.60982C46.6159 10.113 46.7669 10.6329 46.9681 11.1696C47.2029 11.6727 47.5551 12.1423 48.0247 12.5784C47.7899 13.2157 47.5383 13.8027 47.27 14.3394C47.0352 14.8425 46.7836 15.3457 46.5153 15.8488C46.2805 16.352 46.0457 16.8719 45.8109 17.4086C45.5761 17.9452 45.358 18.5155 45.1568 19.1193C44.922 19.0857 44.7878 19.1528 44.7543 19.3205C44.7207 19.4547 44.6201 19.5385 44.4524 19.5721C44.553 20.0417 44.4356 20.4777 44.1002 20.8803C43.7983 21.2828 43.597 21.7356 43.4964 22.2387C43.3958 22.7084 43.3622 23.2283 43.3958 23.7985C43.4629 24.3687 43.5467 24.9557 43.6474 25.5595C43.748 26.1297 43.8486 26.6832 43.9492 27.2199C44.0499 27.7566 44.117 28.2429 44.1505 28.679C44.5195 28.8467 44.7375 29.0983 44.8046 29.4337C44.9052 29.7356 45.0897 30.0039 45.358 30.2387C45.9954 30.8761 46.8172 31.3121 47.8235 31.5469C48.8298 31.8153 49.8864 31.9662 50.9933 31.9998C52.1002 32.0333 53.1903 31.983 54.2637 31.8488C55.3371 31.7146 56.2595 31.5637 57.031 31.396C57.2994 31.396 57.5342 31.4295 57.7354 31.4966C57.9367 31.5972 58.1882 31.614 58.4901 31.5469C59.7312 31.3121 60.8549 31.1109 61.8612 30.9432C62.901 30.7754 63.8402 30.5406 64.6788 30.2387C65.5174 29.9369 66.2553 29.5008 66.8926 28.9306C67.5635 28.3268 68.1505 27.4715 68.6536 26.3645C68.4524 26.3981 68.3015 26.3645 68.2008 26.2639C68.1337 26.1297 68.0834 25.9788 68.0499 25.8111C68.0163 25.6434 67.966 25.4756 67.8989 25.3079C67.8654 25.1067 67.7815 24.939 67.6474 24.8048C67.3455 24.8383 67.0939 24.7712 66.8926 24.6035C66.6914 24.4358 66.4901 24.2513 66.2889 24.0501C66.1212 23.8153 65.9367 23.5805 65.7354 23.3457C65.5342 23.0773 65.2994 22.8928 65.031 22.7922C64.2595 23.0606 63.4042 23.2618 62.465 23.396C61.5593 23.4966 60.771 23.7314 60.1002 24.1004C59.0268 24.0668 58.1379 24.1004 57.4335 24.201C56.7291 24.2681 56.0415 24.352 55.3706 24.4526C54.6998 24.5197 53.9786 24.57 53.2071 24.6035C52.4692 24.6371 51.53 24.57 50.3895 24.4023C50.7249 23.4966 51.1107 22.6413 51.5467 21.8362C51.9828 21.0312 52.4692 20.2765 53.0059 19.5721C53.4084 19.7063 53.8612 19.7733 54.3643 19.7733C54.901 19.7398 55.3539 19.8069 55.7228 19.9746C55.9912 19.8069 56.3601 19.7566 56.8298 19.8237C57.3329 19.8907 57.7186 19.8404 57.987 19.6727C58.1212 19.7733 58.2218 19.8237 58.2889 19.8237H58.6914C59.4964 19.8572 60.2176 19.7901 60.8549 19.6224C61.5258 19.4211 62.1463 19.1696 62.7165 18.8677C63.3203 18.5658 63.8905 18.2304 64.4272 17.8614C64.9639 17.4589 65.5006 17.0731 66.0373 16.7042C66.1715 16.3687 66.205 16.0501 66.1379 15.7482C66.1044 15.4128 66.0205 15.1109 65.8864 14.8425C65.5509 14.8761 65.249 14.8258 64.9807 14.6916C64.7459 14.5239 64.5111 14.3226 64.2763 14.0878L63.5719 13.3834C63.3371 13.1151 63.1023 12.897 62.8675 12.7293C62.8339 12.5951 62.8507 12.5113 62.9178 12.4777C62.9849 12.4107 63.0017 12.2933 62.9681 12.1255C61.5929 12.1591 60.184 12.2429 58.7417 12.3771C57.3329 12.5113 56.0415 12.5281 54.8675 12.4274C54.7669 12.2262 54.7165 11.9746 54.7165 11.6727C54.7501 11.3373 54.6998 11.0186 54.5656 10.7167C54.8675 10.6161 55.1694 10.5323 55.4713 10.4652C55.7731 10.3645 56.0247 10.2136 56.226 10.0123C56.8968 10.0794 57.4 10.0291 57.7354 9.86139C58.1044 9.69368 58.5069 9.69368 58.943 9.86139C60.0499 9.19053 61.1568 8.75447 62.2637 8.55322C63.4042 8.35196 64.5111 8.16747 65.5845 7.99976C66.6578 7.7985 67.6474 7.49661 68.553 7.0941C69.4922 6.65804 70.314 5.86978 71.0184 4.72932C70.9513 4.49451 70.9178 4.3268 70.9178 4.22617V3.87397C70.9513 3.77334 70.9681 3.67271 70.9681 3.57208Z" fill="#D658B3"/>
<path fill-rule="evenodd" clip-rule="evenodd" d="M104.578 30.44C104.243 30.6077 103.924 30.7587 103.622 30.8928C103.354 31.027 103.035 31.0941 102.666 31.0941C101.358 30.1213 100.67 28.4274 100.603 26.0123C100.57 23.5972 101.09 20.5281 102.163 16.8048C102.331 16.7042 102.415 16.5029 102.415 16.201L101.962 15.6979C101.828 15.6979 101.693 15.7146 101.559 15.7482C101.459 15.7817 101.375 15.8991 101.308 16.1004C100.436 16.7377 99.4797 17.4086 98.4398 18.113C97.4 18.7838 96.3098 19.4211 95.1694 20.0249C94.0625 20.5951 92.922 21.0647 91.748 21.4337C90.6075 21.8027 89.4838 21.9872 88.3769 21.9872C85.5593 21.9872 83.4461 20.5616 82.0373 17.7104L81.6348 16.9557L81.2323 17.6098C81.1316 17.744 80.9807 18.0291 80.7794 18.4652C80.5782 18.8677 80.3769 19.3373 80.1757 19.874C79.9744 20.4107 79.7899 20.9641 79.6222 21.5343C79.488 22.071 79.4377 22.5406 79.4713 22.9432C79.1694 23.245 78.8507 23.5972 78.5153 23.9998C78.1799 24.4023 77.9283 24.8551 77.7606 25.3582C77.6935 25.6266 77.727 25.8782 77.8612 26.113C77.7941 26.4149 77.6432 26.6497 77.4084 26.8174C77.2742 26.9851 77.1233 27.1528 76.9555 27.3205C76.8214 27.4547 76.704 27.6056 76.6033 27.7733C76.5362 27.9411 76.4859 28.1088 76.4524 28.2765C76.4524 28.4442 76.4356 28.6119 76.4021 28.7796C76.4021 29.0144 76.3685 29.2325 76.3015 29.4337C75.7312 30.6077 75.2784 31.3624 74.943 31.6979C74.6075 32.0668 74.1547 32.2513 73.5845 32.2513C73.3161 32.2513 72.8801 32.201 72.2763 32.1004C71.8402 31.6308 71.4377 30.9935 71.0687 30.1884C70.7333 29.3499 70.465 28.461 70.2637 27.5218C70.096 26.5826 70.0121 25.6434 70.0121 24.7042C70.0457 23.7314 70.2134 22.8928 70.5153 22.1884C70.5153 22.1549 70.6495 21.8195 70.9178 21.1821C71.1861 20.5448 71.5216 19.723 71.9241 18.7167C72.3602 17.7104 72.8465 16.6035 73.3832 15.396C73.9199 14.1549 74.4566 12.9641 74.9933 11.8237C75.53 10.6497 76.0331 9.57628 76.5027 8.60353C77.0059 7.63078 77.4251 6.89284 77.7606 6.38969C78.0289 5.98718 78.2637 5.6182 78.465 5.28277C78.6998 4.9138 78.9178 4.5616 79.1191 4.22617C79.7228 3.18634 80.2931 2.33099 80.8298 1.66013C81.4 0.955731 82.2218 0.402272 83.2952 -0.000244141C84.0331 0.301643 84.5698 0.653844 84.9052 1.05636L85.0059 1.60982C85.14 1.94525 85.3413 2.11296 85.6096 2.11296C85.9786 2.21359 86.2805 2.31422 86.5153 2.41485C86.7836 2.48194 87.0687 2.54902 87.3706 2.61611C87.6054 2.88445 87.8235 3.20311 88.0247 3.57208C88.2931 3.9746 88.5446 4.37711 88.7794 4.77963C89.0478 5.1486 89.249 5.53435 89.3832 5.93686C89.5509 6.30584 89.6348 6.69158 89.6348 7.0941C89.6683 7.49661 89.6012 7.9159 89.4335 8.35196L89.4838 8.8551C89.6516 9.15699 89.6851 9.57628 89.5845 10.113C89.5509 10.3478 89.5342 10.5993 89.5342 10.8677C89.5342 11.1025 89.5677 11.3708 89.6348 11.6727C90.2386 12.1423 90.7752 12.3771 91.2448 12.3771C91.7815 12.3771 92.2679 12.2597 92.704 12.0249C93.1736 11.7566 93.6096 11.4882 94.0121 11.2199C94.2805 11.0186 94.5488 10.8509 94.8172 10.7167C95.0855 10.549 95.3539 10.4484 95.6222 10.4149C96.226 9.84462 96.7627 9.34147 97.2323 8.90542C97.7354 8.46936 98.2553 8.0333 98.792 7.59724C99.7983 6.79221 100.771 5.92009 101.71 4.98089C102.649 4.04168 103.404 2.86768 103.974 1.45888C104.31 1.25762 104.662 1.15699 105.031 1.15699C105.4 1.15699 105.786 1.24085 106.188 1.40856C106.591 1.57628 106.977 1.74399 107.345 1.91171C107.446 1.97879 107.53 2.02911 107.597 2.06265C107.698 2.09619 107.782 2.12973 107.849 2.16328C107.849 2.49871 107.983 2.78382 108.251 3.01862C108.385 3.11925 108.469 3.18634 108.503 3.21988C108.536 3.25342 108.587 3.28697 108.654 3.32051C109.157 3.58885 109.475 3.8572 109.61 4.12554C109.793 4.72759 110.088 5.2173 110.496 5.59465C110.768 5.12632 111.11 4.72047 111.522 4.37711C112.125 3.84043 112.813 3.40437 113.584 3.06894C114.356 2.69997 115.178 2.41485 116.05 2.21359C116.922 1.97879 117.761 1.76076 118.566 1.5595C119.874 1.3247 121.182 1.05636 122.49 0.754473C123.798 0.452586 125.207 0.351957 126.717 0.452586C126.918 0.351957 127.153 0.301643 127.421 0.301643C127.723 0.2681 128.025 0.251328 128.327 0.251328H129.182C129.484 0.217785 129.735 0.150699 129.937 0.0500703C130.104 0.251328 130.339 0.3855 130.641 0.452586C130.977 0.486129 131.329 0.637072 131.698 0.905416C132.1 0.603529 132.436 0.536443 132.704 0.704158C133.006 0.871873 133.274 1.05636 133.509 1.25762C133.744 1.45888 133.962 1.64336 134.163 1.81108C134.398 1.97879 134.633 2.06265 134.867 2.06265C135.102 2.36454 135.387 2.64965 135.723 2.91799C136.092 3.18634 136.427 3.47145 136.729 3.77334C137.065 4.04168 137.333 4.34357 137.534 4.679C137.769 5.01443 137.886 5.40018 137.886 5.83623C137.853 6.00395 137.903 6.10458 138.037 6.13812C138.171 6.17166 138.272 6.23875 138.339 6.33938C138.373 7.37921 138.205 8.28487 137.836 9.05636C137.501 9.7943 137.065 10.4819 136.528 11.1193C136.025 11.7566 135.454 12.3603 134.817 12.9306C134.213 13.5008 133.66 14.1046 133.157 14.7419C133.492 15.178 133.878 15.5637 134.314 15.8991L135.622 16.9054C136.092 17.2408 136.528 17.593 136.93 17.962C137.333 18.331 137.668 18.7671 137.937 19.2702C138.004 19.3373 138.088 19.4044 138.188 19.4715C138.289 19.505 138.39 19.5553 138.49 19.6224C138.591 19.9578 138.725 20.31 138.893 20.679C139.06 21.0144 139.195 21.3499 139.295 21.6853C139.429 21.9872 139.513 22.2723 139.547 22.5406C139.58 22.7754 139.513 22.9767 139.345 23.1444C139.547 23.245 139.664 23.4128 139.698 23.6476C139.731 23.8824 139.731 24.0668 139.698 24.201C139.094 24.9725 138.675 25.5092 138.44 25.8111C138.205 26.113 138.037 26.3478 137.937 26.5155C137.836 26.6497 137.719 26.767 137.584 26.8677C137.484 26.9683 137.232 27.1863 136.83 27.5218C135.32 28.4274 133.761 29.2325 132.151 29.9369C130.574 30.6413 128.914 31.1276 127.169 31.396C126.901 31.765 126.381 32.0165 125.61 32.1507C124.872 32.3184 124.184 32.4694 123.547 32.6035C123.413 32.5364 123.329 32.4358 123.295 32.3016C123.295 32.201 123.228 32.1172 123.094 32.0501C123.06 32.3855 122.909 32.5532 122.641 32.5532C122.373 32.5868 122.037 32.5197 121.635 32.352C121.266 32.2178 120.863 32.0165 120.427 31.7482C120.025 31.5134 119.673 31.2954 119.371 31.0941C119.203 31.3624 119.018 31.6308 118.817 31.8991C118.649 32.1675 118.431 32.352 118.163 32.4526C117.794 32.3855 117.509 32.3352 117.308 32.3016C117.14 32.2681 116.972 32.3352 116.805 32.5029C116.603 32.4023 116.436 32.2849 116.301 32.1507C116.201 32.0165 116.083 31.8824 115.949 31.7482C115.849 31.6476 115.714 31.5469 115.547 31.4463C115.413 31.3457 115.211 31.2618 114.943 31.1947C115.01 31.0606 114.977 30.8593 114.842 30.591C114.708 30.2891 114.507 30.1046 114.239 30.0375C114.373 29.8027 114.306 29.5176 114.037 29.1821C113.803 28.8132 113.618 28.4107 113.484 27.9746C113.551 27.6056 113.601 27.2031 113.635 26.767C113.668 26.331 113.87 26.0794 114.239 26.0123C114.205 25.7775 114.155 25.5763 114.088 25.4086L113.886 24.9054C114.121 24.7042 114.289 24.4694 114.39 24.201C114.49 23.8991 114.574 23.5972 114.641 23.2954C114.708 22.9935 114.792 22.6916 114.893 22.3897C114.993 22.0878 115.178 21.8362 115.446 21.635C115.748 20.6287 115.983 19.8907 116.151 19.4211C116.318 18.918 116.436 18.4316 116.503 17.962C116.603 17.4924 116.704 16.9893 116.805 16.4526C116.939 15.9159 117.157 15.245 117.459 14.44C117.425 13.9369 117.475 13.5008 117.61 13.1318C117.744 12.7293 117.878 12.3436 118.012 11.9746C118.18 11.5721 118.314 11.1696 118.415 10.7671C118.515 10.331 118.499 9.82785 118.364 9.25762C117.895 9.29116 117.559 9.45887 117.358 9.76076C117.157 10.0291 117.023 10.3981 116.956 10.8677C116.687 11.136 116.352 11.2702 115.949 11.2702C115.58 11.2367 115.245 11.2702 114.943 11.3708C113.769 10.9012 112.796 10.2304 112.025 9.35825C111.739 9.03505 111.474 8.69113 111.229 8.32648L110.515 8.25133L110.666 9.2073C110.733 9.6769 110.683 10.1968 110.515 10.7671C110.381 11.3373 110.213 11.7901 110.012 12.1255C110.046 12.9977 110.062 13.6853 110.062 14.1884C110.096 14.658 110.079 15.1109 110.012 15.5469C109.945 15.9494 109.844 16.3352 109.71 16.7042C109.61 17.0731 109.459 17.4756 109.257 17.9117C109.392 20.0585 109.14 22.0207 108.503 23.7985C107.899 25.5427 107.262 27.1863 106.591 28.7293C106.524 28.897 106.44 29.0647 106.339 29.2325L106.138 29.7356C105.836 29.8362 105.568 29.9536 105.333 30.0878C105.098 30.1884 104.847 30.3058 104.578 30.44ZM125.358 6.79221C127.069 6.42324 128.779 6.27229 130.49 6.33938C129.652 7.34567 128.729 8.2681 127.723 9.10667C126.717 9.91171 125.559 10.5826 124.251 11.1193C123.916 10.4819 123.446 9.97879 122.842 9.60982C122.272 9.24085 121.702 8.82156 121.132 8.35196C122.272 7.6811 123.681 7.16118 125.358 6.79221ZM131.698 21.5847C131.429 21.7859 131.245 22.0543 131.144 22.3897C130.306 22.6916 129.501 23.027 128.729 23.396C127.991 23.7314 127.22 24.0668 126.415 24.4023C125.643 24.7377 124.838 25.0564 124 25.3582C123.161 25.6266 122.239 25.8278 121.232 25.962C121.601 24.8886 121.987 23.7817 122.39 22.6413C122.792 21.5008 123.178 20.4442 123.547 19.4715C124.285 19.3708 125.006 19.2031 125.71 18.9683C126.448 18.7335 127.203 18.5658 127.974 18.4652C128.779 18.331 129.618 18.331 130.49 18.4652C131.396 18.5658 132.385 18.9012 133.459 19.4715C133.492 19.874 133.408 20.1926 133.207 20.4274C133.006 20.6287 132.771 20.8299 132.503 21.0312C132.234 21.1989 131.966 21.3834 131.698 21.5847Z" fill="#D658B3"/>
<path d="M169.333 3.01862C169.366 3.25342 169.366 3.43791 169.333 3.57208C169.333 3.67271 169.316 3.77334 169.283 3.87397V4.22617C169.283 4.3268 169.316 4.49451 169.383 4.72932C168.679 5.86978 167.857 6.65804 166.918 7.0941C166.012 7.49661 165.023 7.7985 163.949 7.99976C162.876 8.16747 161.769 8.35196 160.629 8.55322C159.522 8.75447 158.415 9.19053 157.308 9.86139C156.872 9.69368 156.469 9.69368 156.1 9.86139C155.765 10.0291 155.262 10.0794 154.591 10.0123C154.39 10.2136 154.138 10.3645 153.836 10.4652C153.534 10.5323 153.232 10.6161 152.93 10.7167C153.065 11.0186 153.115 11.3373 153.081 11.6727C153.081 11.9746 153.132 12.2262 153.232 12.4274C154.406 12.5281 155.698 12.5113 157.106 12.3771C158.549 12.2429 159.958 12.1591 161.333 12.1255C161.366 12.2933 161.35 12.4107 161.283 12.4777C161.215 12.5113 161.199 12.5951 161.232 12.7293C161.467 12.897 161.702 13.1151 161.937 13.3834L162.641 14.0878C162.876 14.3226 163.111 14.5239 163.345 14.6916C163.614 14.8258 163.916 14.8761 164.251 14.8425C164.385 15.1109 164.469 15.4128 164.503 15.7482C164.57 16.0501 164.536 16.3687 164.402 16.7042C163.865 17.0731 163.329 17.4589 162.792 17.8614C162.255 18.2304 161.685 18.5658 161.081 18.8677C160.511 19.1696 159.891 19.4211 159.22 19.6224C158.582 19.7901 157.861 19.8572 157.056 19.8237H156.654C156.587 19.8237 156.486 19.7733 156.352 19.6727C156.083 19.8404 155.698 19.8907 155.195 19.8237C154.725 19.7566 154.356 19.8069 154.088 19.9746C153.719 19.8069 153.266 19.7398 152.729 19.7733C152.226 19.7733 151.773 19.7063 151.371 19.5721C150.834 20.2765 150.348 21.0312 149.912 21.8362C149.475 22.6413 149.09 23.4966 148.754 24.4023C149.895 24.57 150.834 24.6371 151.572 24.6035C152.343 24.57 153.065 24.5197 153.735 24.4526C154.406 24.352 155.094 24.2681 155.798 24.201C156.503 24.1004 157.392 24.0668 158.465 24.1004C159.136 23.7314 159.924 23.4966 160.83 23.396C161.769 23.2618 162.624 23.0606 163.396 22.7922C163.664 22.8928 163.899 23.0773 164.1 23.3457C164.301 23.5805 164.486 23.8153 164.654 24.0501C164.855 24.2513 165.056 24.4358 165.257 24.6035C165.459 24.7712 165.71 24.8383 166.012 24.8048C166.146 24.939 166.23 25.1067 166.264 25.3079C166.331 25.4756 166.381 25.6434 166.415 25.8111C166.448 25.9788 166.499 26.1297 166.566 26.2639C166.666 26.3645 166.817 26.3981 167.018 26.3645C166.515 27.4715 165.928 28.3268 165.257 28.9306C164.62 29.5008 163.882 29.9369 163.044 30.2387C162.205 30.5406 161.266 30.7754 160.226 30.9432C159.22 31.1109 158.096 31.3121 156.855 31.5469C156.553 31.614 156.301 31.5972 156.1 31.4966C155.899 31.4295 155.664 31.396 155.396 31.396C154.624 31.5637 153.702 31.7146 152.629 31.8488C151.555 31.983 150.465 32.0333 149.358 31.9998C148.251 31.9662 147.195 31.8153 146.188 31.5469C145.182 31.3121 144.36 30.8761 143.723 30.2387C143.454 30.0039 143.27 29.7356 143.169 29.4337C143.102 29.0983 142.884 28.8467 142.515 28.679C142.482 28.2429 142.415 27.7566 142.314 27.2199C142.213 26.6832 142.113 26.1297 142.012 25.5595C141.912 24.9557 141.828 24.3687 141.761 23.7985C141.727 23.2283 141.761 22.7084 141.861 22.2387C141.962 21.7356 142.163 21.2828 142.465 20.8803C142.8 20.4777 142.918 20.0417 142.817 19.5721C142.985 19.5385 143.086 19.4547 143.119 19.3205C143.153 19.1528 143.287 19.0857 143.522 19.1193C143.723 18.5155 143.941 17.9452 144.176 17.4086C144.41 16.8719 144.645 16.352 144.88 15.8488C145.148 15.3457 145.4 14.8425 145.635 14.3394C145.903 13.8027 146.155 13.2157 146.39 12.5784C145.92 12.1423 145.568 11.6727 145.333 11.1696C145.132 10.6329 144.981 10.113 144.88 9.60982C144.779 9.07313 144.696 8.53644 144.629 7.99976C144.561 7.42952 144.444 6.85929 144.276 6.28906C144.612 5.78592 145.014 5.3834 145.484 5.08152C145.987 4.74609 146.524 4.47774 147.094 4.27649C147.664 4.07523 148.285 3.90751 148.956 3.77334C149.626 3.63917 150.331 3.48823 151.069 3.32051C152.41 2.88445 153.601 2.54902 154.641 2.31422C155.714 2.07942 156.754 1.89493 157.761 1.76076C158.8 1.59305 159.874 1.4421 160.981 1.30793C162.088 1.17376 163.345 0.972502 164.754 0.704158C165.056 1.00605 165.341 1.15699 165.61 1.15699C165.744 0.855102 165.895 0.771244 166.062 0.905416C166.264 1.00605 166.348 0.905416 166.314 0.603529C166.649 1.17376 167.069 1.66013 167.572 2.06265C168.109 2.43162 168.696 2.75028 169.333 3.01862Z" fill="#D658B3"/>
<path fill-rule="evenodd" clip-rule="evenodd" d="M174.717 29.1821C175.018 28.4777 175.354 27.4547 175.723 26.113C176.36 26.6832 176.897 27.1696 177.333 27.5721C177.803 27.9746 178.306 28.3603 178.842 28.7293C179.413 29.0647 180.067 29.4169 180.805 29.7859C181.576 30.1213 182.566 30.5239 183.773 30.9935C186.188 31.9327 188.184 32.57 189.761 32.9054C191.337 33.2744 192.645 33.2576 193.685 32.8551C193.987 32.8216 194.222 32.7209 194.39 32.5532C194.557 32.419 194.708 32.2513 194.842 32.0501L195.245 31.4463C195.379 31.245 195.547 31.0773 195.748 30.9432C195.614 30.9096 195.48 30.9096 195.346 30.9432C195.245 30.9432 195.178 30.8928 195.144 30.7922C195.346 30.5574 195.463 30.2555 195.496 29.8865C195.53 29.484 195.513 29.0815 195.446 28.679C195.379 28.2429 195.228 27.8237 194.993 27.4211C194.792 26.9851 194.54 26.6161 194.239 26.3142C193.467 26.2471 192.863 26.1968 192.427 26.1633L191.22 25.962C190.817 25.8614 190.364 25.7608 189.861 25.6601C189.392 25.526 188.721 25.3582 187.849 25.157C186.977 24.9557 186.289 24.788 185.786 24.6538C185.316 24.4861 184.863 24.3016 184.427 24.1004C184.025 23.8991 183.589 23.6476 183.119 23.3457C182.649 23.0438 182.012 22.6413 181.207 22.1381C181.241 21.9704 181.19 21.8865 181.056 21.8865C180.956 21.8865 180.905 21.8195 180.905 21.6853C182.012 21.2157 183.253 20.7796 184.629 20.3771C186.004 19.9746 187.295 19.4882 188.503 18.918C189.71 18.3142 190.733 17.5595 191.572 16.6538C192.444 15.7482 192.93 14.5574 193.031 13.0815C193.065 12.8467 193.065 12.6622 193.031 12.5281C192.997 12.3939 192.947 12.2597 192.88 12.1255C192.847 11.9914 192.83 11.874 192.83 11.7733C192.83 11.6392 192.863 11.4882 192.93 11.3205C192.662 10.8174 192.427 10.2974 192.226 9.76076C192.025 9.19053 191.823 8.63707 191.622 8.10038C191.421 7.53015 191.186 7.01024 190.918 6.54064C190.683 6.03749 190.364 5.60143 189.962 5.23246V4.62869C189.693 4.46097 189.459 4.31003 189.257 4.17586C189.09 4.00814 188.872 3.8572 188.603 3.72303C188.067 2.88445 187.379 2.21359 186.54 1.71045C185.735 1.17376 184.997 0.653844 184.327 0.150699C183.018 0.284871 181.928 0.704158 181.056 1.40856C180.218 2.11296 179.446 2.91799 178.742 3.82366C178.037 4.72932 177.35 5.66852 176.679 6.64126C176.008 7.58047 175.236 8.3855 174.364 9.05636C174.264 8.82156 173.979 8.63707 173.509 8.5029C173.073 8.33519 172.67 8.28487 172.301 8.35196C171.966 9.0899 171.698 9.89493 171.496 10.7671C171.295 11.6392 171.094 12.5281 170.893 13.4337C170.725 14.3394 170.524 15.2618 170.289 16.201C170.088 17.1067 169.819 17.9956 169.484 18.8677C169.517 19.0354 169.534 19.2534 169.534 19.5218C169.534 19.7566 169.517 20.0081 169.484 20.2765C169.45 20.5113 169.4 20.7125 169.333 20.8803C169.266 21.0144 169.165 21.0312 169.031 20.9306C169.232 21.4337 169.283 21.9201 169.182 22.3897C169.081 22.8593 168.947 23.3289 168.779 23.7985C168.645 24.2681 168.528 24.7712 168.427 25.3079C168.327 25.8446 168.226 26.4149 168.125 27.0186C168.26 27.2534 168.377 27.4882 168.478 27.723C168.578 27.9578 168.712 28.0752 168.88 28.0752C168.813 28.31 168.796 28.5113 168.83 28.679C168.863 28.8132 168.897 28.9641 168.93 29.1318C168.997 29.266 169.048 29.4337 169.081 29.635C169.115 29.8027 169.098 30.0207 169.031 30.2891C169.4 30.222 169.618 30.3058 169.685 30.5406C169.786 30.7754 169.87 31.027 169.937 31.2954C170.239 31.2954 170.457 31.3289 170.591 31.396C170.758 31.4966 170.893 31.5805 170.993 31.6476C171.094 31.7482 171.211 31.832 171.345 31.8991C171.48 31.9662 171.698 31.9662 172 31.8991C172.201 31.765 172.385 31.614 172.553 31.4463C172.721 31.2786 173.023 31.2283 173.459 31.2954C174.029 30.5574 174.448 29.853 174.717 29.1821ZM181.66 10.3142C182.13 9.87816 182.549 9.39179 182.918 8.8551C183.555 9.05636 184.159 9.47565 184.729 10.113C185.333 10.7503 185.702 11.5889 185.836 12.6287C184.696 13.0983 183.488 13.6014 182.213 14.1381C180.939 14.6413 179.714 14.9599 178.54 15.0941C178.675 14.3561 178.909 13.7188 179.245 13.1821C179.58 12.6119 179.949 12.1088 180.352 11.6727C180.788 11.2031 181.224 10.7503 181.66 10.3142Z" fill="#D658B3"/>
<path fill-rule="evenodd" clip-rule="evenodd" d="M151.862 71.044C151.828 70.8092 151.711 70.6415 151.509 70.5409C151.677 70.3732 151.744 70.1719 151.711 69.9371C151.677 69.6688 151.593 69.3836 151.459 69.0817C151.358 68.7463 151.224 68.4109 151.057 68.0755C150.889 67.7065 150.755 67.3543 150.654 67.0189C150.553 66.9518 150.453 66.9015 150.352 66.8679C150.252 66.8008 150.168 66.7337 150.101 66.6667C149.832 66.1635 149.497 65.7275 149.094 65.3585C148.692 64.9895 148.256 64.6373 147.786 64.3019L146.478 63.2956C146.042 62.9602 145.656 62.5744 145.321 62.1384C145.824 61.501 146.377 60.8973 146.981 60.327C147.618 59.7568 148.189 59.153 148.692 58.5157C149.229 57.8784 149.665 57.1908 150 56.4528C150.369 55.6813 150.537 54.7757 150.503 53.7358C150.436 53.6352 150.335 53.5681 150.201 53.5346C150.067 53.501 150.017 53.4004 150.05 53.2327C150.05 52.7966 149.933 52.4109 149.698 52.0755C149.497 51.74 149.229 51.4381 148.893 51.1698C148.591 50.8679 148.256 50.5828 147.887 50.3145C147.551 50.0461 147.266 49.761 147.031 49.4591C146.797 49.4591 146.562 49.3753 146.327 49.2075C146.126 49.0398 145.908 48.8553 145.673 48.6541C145.438 48.4528 145.17 48.2683 144.868 48.1006C144.6 47.9329 144.264 48 143.862 48.3019C143.493 48.0335 143.14 47.8826 142.805 47.849C142.503 47.782 142.268 47.6478 142.101 47.4465C141.899 47.5472 141.648 47.6142 141.346 47.6478H140.491C140.189 47.6478 139.887 47.6646 139.585 47.6981C139.317 47.6981 139.082 47.7484 138.881 47.849C137.371 47.7484 135.962 47.849 134.654 48.1509C133.346 48.4528 132.038 48.7212 130.73 48.956C129.925 49.1572 129.086 49.3753 128.214 49.6101C127.342 49.8113 126.52 50.0964 125.748 50.4654C124.986 50.7967 124.306 51.2261 123.708 51.7538C123.581 51.2773 123.49 50.7305 123.434 50.1132C123.065 49.7107 122.662 49.3082 122.226 48.9057C121.824 48.5031 121.354 48.1342 120.818 47.7987C120.08 48.1342 119.61 48.6205 119.409 49.2579C119.275 49.5262 119.275 49.761 119.409 49.9623L119.509 50.5157C119.509 51.1195 119.224 51.522 118.654 51.7233C118.587 52.6625 118.453 53.6688 118.252 54.7421C118.084 55.782 117.816 56.8386 117.447 57.9119C117.111 58.9853 116.675 60.0251 116.138 61.0314C115.635 62.0042 115.031 62.8763 114.327 63.6478C113.623 64.4193 112.952 65.1069 112.314 65.7107C111.677 66.2809 111.006 66.7841 110.302 67.2201C109.597 67.6562 108.826 68.0419 107.987 68.3773C107.182 68.6792 106.277 68.9643 105.27 69.2327L104.415 69.3333L104.113 68.6792C103.912 68.1425 103.761 67.4885 103.66 66.717C103.593 65.9119 103.577 65.0901 103.61 64.2516C103.677 63.3794 103.795 62.5241 103.962 61.6855C104.164 60.847 104.432 60.109 104.767 59.4717C104.734 58.9015 104.6 58.3145 104.365 57.7107C104.164 57.0734 103.929 56.4696 103.66 55.8994C103.526 55.5639 103.392 55.262 103.258 54.9937C103.157 54.6918 103.073 54.4067 103.006 54.1384C102.503 53.9371 102.117 53.652 101.849 53.283C101.614 52.914 101.413 52.5786 101.245 52.2767C101.078 51.9077 100.91 51.6394 100.742 51.4717C100.574 51.304 100.256 51.2369 99.7862 51.2704C99.6185 51.5052 99.4172 51.7736 99.1824 52.0755C98.9476 52.3438 98.5954 52.5283 98.1258 52.6289C97.9245 53.2662 97.7736 53.9539 97.673 54.6918C97.6059 55.1279 97.522 55.5975 97.4214 56.1006C97.3208 56.5702 97.2201 57.174 97.1195 57.9119V58.4654C96.6164 59.9748 96.348 61.7023 96.3145 63.6478C96.3145 65.5597 96.3648 67.6729 96.4654 69.9874L96.5157 70.7924C96.5828 70.8931 96.6667 70.9937 96.7673 71.0943C96.8679 71.1614 96.9518 71.2453 97.0189 71.3459L98.1258 72.5535L97.2704 72.805C97.4717 73.1404 97.6562 73.4759 97.8239 73.8113C97.9916 74.1132 98.1593 74.4486 98.327 74.8176C98.5954 75.4214 98.8637 75.9916 99.1321 76.5283C99.434 77.0314 99.87 77.4172 100.44 77.6855C100.608 77.6855 100.792 77.7358 100.994 77.8365C101.195 77.9371 101.346 78.1216 101.447 78.3899C102.386 78.4906 103.174 78.5409 103.811 78.5409C104.18 78.5744 104.566 78.608 104.969 78.6415C105.405 78.6415 105.908 78.675 106.478 78.7421C107.887 78.1384 109.145 77.5849 110.252 77.0817C111.392 76.5786 112.398 76.0419 113.27 75.4717C114.176 74.8679 114.981 74.1971 115.686 73.4591C116.39 72.6876 117.061 71.7484 117.698 70.6415L118.201 70.0377L118.906 69.8365L119.107 68.5786L120.113 68.9308C120.18 68.8637 120.264 68.7296 120.365 68.5283C120.465 68.327 120.549 68.1761 120.616 68.0755C120.751 67.8407 120.868 67.6226 120.969 67.4214C121.103 67.1866 121.254 66.9853 121.421 66.8176C121.723 66.1467 122.126 65.3585 122.629 64.4528C123.132 63.5472 123.652 62.5073 124.189 61.3333C124.323 60.5283 124.44 59.7568 124.541 59.0189C124.63 58.5266 124.75 58.0046 124.899 57.4527C125.532 57.9936 126.268 58.4318 127.107 58.7673C127.409 58.6667 127.744 58.6331 128.113 58.6667C128.516 58.6667 128.851 58.5325 129.119 58.2641C129.187 57.7945 129.321 57.4256 129.522 57.1572C129.723 56.8553 130.059 56.6876 130.528 56.6541C130.662 57.2243 130.679 57.7275 130.579 58.1635C130.478 58.566 130.344 58.9685 130.176 59.3711C130.042 59.74 129.908 60.1258 129.774 60.5283C129.639 60.8973 129.589 61.3333 129.623 61.8365C129.321 62.6415 129.103 63.3124 128.969 63.849C128.868 64.3857 128.767 64.8889 128.667 65.3585C128.6 65.8281 128.482 66.3145 128.314 66.8176C128.147 67.2872 127.912 68.0251 127.61 69.0314C127.342 69.2327 127.157 69.4843 127.057 69.7862C126.956 70.088 126.872 70.3899 126.805 70.6918C126.738 70.9937 126.654 71.2956 126.553 71.5975C126.453 71.8658 126.285 72.1006 126.05 72.3019L126.252 72.805C126.319 72.9727 126.369 73.174 126.403 73.4088C126.034 73.4759 125.832 73.7275 125.799 74.1635C125.765 74.5996 125.715 75.0021 125.648 75.3711C125.782 75.8071 125.966 76.2096 126.201 76.5786C126.47 76.914 126.537 77.1992 126.403 77.434C126.671 77.501 126.872 77.6855 127.006 77.9874C127.14 78.2558 127.174 78.457 127.107 78.5912C127.375 78.6583 127.577 78.7421 127.711 78.8428C127.878 78.9434 128.013 79.044 128.113 79.1446C128.247 79.2788 128.365 79.413 128.465 79.5472C128.6 79.6813 128.767 79.7987 128.969 79.8994C129.136 79.7316 129.304 79.6646 129.472 79.6981C129.673 79.7316 129.958 79.782 130.327 79.849C130.595 79.7484 130.813 79.5639 130.981 79.2956C131.182 79.0272 131.367 78.7589 131.535 78.4906C131.836 78.6918 132.189 78.9098 132.591 79.1446C133.027 79.413 133.43 79.6142 133.799 79.7484C134.201 79.9161 134.537 79.9832 134.805 79.9497C135.073 79.9497 135.224 79.782 135.258 79.4465C135.392 79.5136 135.459 79.5975 135.459 79.6981C135.493 79.8323 135.577 79.9329 135.711 80C136.348 79.8658 137.036 79.7149 137.774 79.5472C138.545 79.413 139.065 79.1614 139.333 78.7924C141.078 78.5241 142.738 78.0377 144.314 77.3333C145.925 76.6289 147.484 75.8239 148.994 74.9182C149.396 74.5828 149.648 74.3648 149.748 74.2641C149.883 74.1635 150 74.0461 150.101 73.9119C150.201 73.7442 150.369 73.5094 150.604 73.2075C150.839 72.9056 151.258 72.369 151.862 71.5975C151.895 71.4633 151.895 71.2788 151.862 71.044ZM137.522 54.1887C139.233 53.8197 140.943 53.6688 142.654 53.7358C141.816 54.7421 140.893 55.6646 139.887 56.5031C138.881 57.3082 137.723 57.979 136.415 58.5157C136.08 57.8784 135.61 57.3753 135.006 57.0063C134.436 56.6373 133.866 56.218 133.296 55.7484C134.436 55.0776 135.845 54.5576 137.522 54.1887ZM143.862 68.9811C143.593 69.1824 143.409 69.4507 143.308 69.7862C142.47 70.088 141.665 70.4235 140.893 70.7924C140.155 71.1279 139.384 71.4633 138.579 71.7987C137.807 72.1342 137.002 72.4528 136.164 72.7547C135.325 73.023 134.403 73.2243 133.396 73.3585C133.765 72.2851 134.151 71.1782 134.553 70.0377C134.956 68.8973 135.342 67.8407 135.711 66.8679C136.449 66.7673 137.17 66.5996 137.874 66.3648C138.612 66.13 139.367 65.9623 140.138 65.8616C140.943 65.7275 141.782 65.7275 142.654 65.8616C143.56 65.9623 144.549 66.2977 145.623 66.8679C145.656 67.2704 145.572 67.5891 145.371 67.8239C145.17 68.0251 144.935 68.2264 144.667 68.4277C144.398 68.5954 144.13 68.7799 143.862 68.9811Z" fill="#D658B3"/>
<path d="M78.5535 79.0943C79.6604 78.7924 80.6834 78.4906 81.6226 78.1887L82.7799 77.8868C83.2159 77.8868 83.6352 77.87 84.0377 77.8365C84.4738 77.8029 84.8931 77.7526 85.2956 77.6855L86.5031 77.5849C86.9057 77.5514 87.2914 77.5346 87.6604 77.5346C88.6331 77.5346 89.5723 77.6855 90.478 77.9874C91.1488 77.8197 91.7191 77.7358 92.1887 77.7358H92.4906C92.6247 77.7358 92.826 77.7191 93.0943 77.6855C93.2621 77.5178 93.4298 77.3669 93.5975 77.2327C93.7987 77.0985 94.1509 76.9811 94.6541 76.8805L94.5535 76.327C94.6876 76.1929 94.7547 75.9916 94.7547 75.7233C94.7883 75.6226 94.6876 75.4214 94.4528 75.1195L94.1006 72.956C93.7652 72.6876 93.413 72.4864 93.044 72.3522C92.7086 72.1845 92.3564 72.0335 91.9874 71.8994C91.5849 71.7652 91.1992 71.6142 90.8302 71.4465C90.4612 71.2788 90.0755 71.0105 89.673 70.6415C89.5052 70.608 89.304 70.5912 89.0692 70.5912H88.6667C88.5996 70.5576 88.4151 70.457 88.1132 70.2893C87.7107 70.3564 87.2746 70.3899 86.805 70.3899H85.3962C84.2222 70.4235 83.0314 70.4906 81.8239 70.5912C80.6499 70.6918 79.5597 71.0105 78.5535 71.5472C78.1509 71.4465 77.7987 71.3962 77.4969 71.3962H77.044C76.9099 71.3962 76.7589 71.4298 76.5912 71.4968C76.6583 70.2558 76.8428 69.1488 77.1447 68.1761C77.4801 67.2033 77.8491 66.2306 78.2516 65.2579C78.4864 64.7212 78.7044 64.1845 78.9057 63.6478C79.1405 63.1111 79.3082 62.4067 79.4088 61.5346C79.5765 61.4004 79.6939 61.2495 79.761 61.0818C79.8616 60.8805 79.9455 60.696 80.0126 60.5283C80.0797 60.3606 80.13 60.2096 80.1635 60.0755C80.2306 59.9413 80.3312 59.7903 80.4654 59.6226C80.5996 58.8847 80.7673 58.2641 80.9686 57.761C81.1698 57.2579 81.3878 56.7547 81.6226 56.2516C81.8239 55.782 82.0084 55.3124 82.1761 54.8428C82.3774 54.3732 82.5618 53.8029 82.7296 53.1321C82.8302 53.1321 82.9811 52.9811 83.1824 52.6792C83.283 51.9413 83.1992 51.3543 82.9308 50.9182C82.6625 50.4486 82.3438 49.9958 81.9748 49.5597L81.7736 49.3585C81.7065 49.2579 81.5388 49.1237 81.2704 48.956C80.7337 48.956 80.0629 48.8218 79.2579 48.5535C78.4528 48.2516 77.7484 47.9497 77.1447 47.6478C77.0105 47.6813 76.8428 47.7316 76.6415 47.7987C76.5073 47.8658 76.3061 47.9832 76.0377 48.1509C75.6352 49.8616 75.1824 51.4549 74.6792 52.9308C74.1761 54.4067 73.6394 55.8994 73.0692 57.4088C72.7337 58.2809 72.3983 59.1698 72.0629 60.0755C71.761 60.9476 71.3753 62.021 70.9057 63.2956C70.7379 63.5975 70.587 63.9329 70.4528 64.3019C70.3187 64.6709 70.3187 65.0063 70.4528 65.3082C70.1845 65.6771 69.9665 66.1132 69.7987 66.6163C69.6646 67.1195 69.5304 67.6394 69.3962 68.1761C69.3627 68.3438 69.3291 68.4948 69.2956 68.6289C69.2956 68.7631 69.2621 68.8973 69.195 69.0314C69.0273 69.6352 68.9099 70.2725 68.8428 70.9434C68.8092 71.6142 68.826 72.2851 68.8931 72.956C68.9937 73.5933 69.1614 74.2306 69.3962 74.8679C69.631 75.4717 69.9497 76.0084 70.3522 76.478C70.3857 76.7463 70.4361 76.9643 70.5031 77.1321L70.805 77.5346C70.9392 77.6688 71.0901 77.9203 71.2579 78.2893C72.2306 79.1279 73.5556 79.5472 75.2327 79.5472C76.3396 79.5472 77.4465 79.3962 78.5535 79.0943Z" fill="#D658B3"/>
<path d="M60.7925 78.7924C61.5975 78.8595 62.2683 78.8763 62.805 78.8428C63.3753 78.4067 63.9455 77.9874 64.5157 77.5849C65.086 77.1488 65.6059 76.6792 66.0755 76.1761C66.1761 75.6059 66.1426 75.1363 65.9748 74.7673C65.8071 74.3648 65.5891 74.0126 65.3208 73.7107C65.0524 73.3753 64.7505 73.0734 64.4151 72.805C64.1132 72.5031 63.8449 72.1845 63.6101 71.849C61.0943 71.8155 58.5786 71.7149 56.0629 71.5472C53.5807 71.3794 51.2327 70.9602 49.0189 70.2893C48.8176 69.9203 48.6331 69.5514 48.4654 69.1824C48.2977 68.7799 48.1803 68.327 48.1132 67.8239C48.2809 67.5555 48.4486 67.304 48.6164 67.0692C48.8176 66.8008 48.9015 66.4319 48.8679 65.9623C49.4046 65.4591 49.9078 64.956 50.3774 64.4528C50.8805 63.9161 51.4004 63.413 51.9371 62.9434C52.5073 62.4402 53.0943 62.0042 53.6981 61.6352C54.3354 61.2327 55.0566 60.914 55.8616 60.6792C56.7673 59.6729 57.9245 58.9182 59.3333 58.4151C60.7757 57.8784 62.3019 57.392 63.9119 56.956C64.6163 56.7547 65.2704 56.3522 65.8742 55.7484C66.478 55.1446 66.8973 54.4906 67.1321 53.7862C67.3669 53.0818 67.3501 52.4109 67.0818 51.7736C66.8134 51.1027 66.1761 50.6163 65.1698 50.3145C65.1698 50.1132 65.2034 49.979 65.2704 49.9119C65.3375 49.8113 65.304 49.6771 65.1698 49.5094C64.7673 49.4759 64.4654 49.392 64.2641 49.2579C64.0964 49.0901 63.8784 49.0231 63.6101 49.0566C63.6436 48.9895 63.6939 48.8721 63.761 48.7044C63.8281 48.5367 63.7778 48.4528 63.6101 48.4528C63.543 48.6205 63.4591 48.7044 63.3585 48.7044C63.2914 48.6709 63.2075 48.6038 63.1069 48.5031C63.0063 48.4025 62.8889 48.3019 62.7547 48.2013C62.6541 48.1006 62.5199 48.0671 62.3522 48.1006C62.0839 48.2013 61.7987 48.3019 61.4969 48.4025C61.195 48.4696 60.9602 48.369 60.7925 48.1006C60.5912 48.4361 60.3061 48.7044 59.9371 48.9057C59.6017 49.1069 59.2327 49.3082 58.8302 49.5094C58.4612 49.6771 58.0922 49.8616 57.7233 50.0629C57.3543 50.2306 57.0356 50.4654 56.7673 50.7673C56.0629 50.935 55.4423 51.1698 54.9057 51.4717C54.369 51.7736 53.8491 52.109 53.3459 52.478C52.8428 52.8134 52.3229 53.1488 51.7862 53.4843C51.283 53.7862 50.6792 54.021 49.9748 54.1887C49.7736 54.457 49.5388 54.6918 49.2704 54.8931C49.0356 55.0608 48.7841 55.2453 48.5157 55.4465C48.2809 55.6142 48.0461 55.8155 47.8113 56.0503C47.6101 56.2516 47.2914 56.4528 46.8553 56.6541C45.8826 57.7275 44.9266 58.8176 43.9874 59.9245C43.0818 60.9979 42.3774 62.2893 41.8742 63.7987C41.8407 64.805 41.8742 65.8616 41.9748 66.9685C42.0755 68.0419 42.2767 69.0985 42.5786 70.1384C42.8805 71.1782 43.283 72.1677 43.7862 73.1069C44.2893 74.0126 44.9434 74.7841 45.7484 75.4214C46.3187 75.5555 46.7715 75.7903 47.1069 76.1258C47.4423 76.4277 47.7778 76.7631 48.1132 77.1321C49.6562 77.6688 51.3501 78.1216 53.195 78.4906C55.0398 78.8595 56.8512 79.0776 58.6289 79.1446C59.2998 78.8428 60.021 78.7254 60.7925 78.7924Z" fill="#D658B3"/>
<path d="M163.32 50.5306C162.743 50.6583 162.345 50.8299 162.128 51.0453C161.872 51.264 161.718 51.5332 161.667 51.8528C161.573 52.1366 161.56 52.453 161.629 52.8018C161.698 53.1507 161.747 53.5012 161.777 53.8534C162.807 54.4362 164.191 54.7921 165.928 54.921C167.662 55.0108 169.469 55.0353 171.349 54.9945C173.225 54.9146 175.04 54.8005 176.793 54.6522C178.546 54.5039 179.934 54.4456 180.957 54.4773C183.08 54.5341 184.736 54.6305 185.925 54.7664C187.071 54.8665 187.867 54.9962 188.312 55.1556C189.049 55.0539 189.622 54.8675 190.03 54.5964C190.439 54.3254 190.766 54.0218 191.013 53.6857C191.256 53.3105 191.456 52.8994 191.615 52.4525C191.773 52.0056 191.969 51.5358 192.202 51.0432C192.019 50.7434 191.942 50.2966 191.97 49.7031C191.999 49.1096 192.194 48.6398 192.558 48.2938C192.243 48.281 191.991 48.0856 191.802 47.7075C191.609 47.2902 191.583 46.9772 191.722 46.7684C191.086 46.6646 190.415 46.6228 189.711 46.6429C188.964 46.6273 188.238 46.6296 187.534 46.6498C186.829 46.67 186.162 46.6673 185.532 46.6417C184.86 46.5804 184.28 46.4521 183.793 46.2568C181.842 46.3825 179.83 46.4935 177.759 46.5899C175.649 46.6896 173.675 46.7778 171.837 46.8544C171.192 47.1061 170.422 47.2894 169.53 47.4043C168.634 47.4801 167.762 47.6129 166.915 47.8028C166.065 47.9536 165.304 48.2347 164.632 48.6462C163.961 49.0577 163.524 49.6858 163.32 50.5306Z" fill="#D658B3"/>
<path d="M30.9759 51.0453C30.7587 50.8299 30.3613 50.6583 29.7835 50.5306C29.5804 49.6858 29.1431 49.0577 28.4716 48.6462C27.8002 48.2347 27.0393 47.9536 26.1889 47.8028C25.3418 47.6129 24.4702 47.4801 23.5742 47.4043C22.6815 47.2894 21.9123 47.1061 21.2666 46.8544C19.429 46.7778 17.4551 46.6896 15.3449 46.5899C13.2736 46.4935 11.2623 46.3825 9.3112 46.2568C8.82387 46.4521 8.2441 46.5804 7.57191 46.6417C6.94199 46.6673 6.27477 46.67 5.57024 46.6498C4.86572 46.6296 4.14006 46.6273 3.39327 46.6429C2.68874 46.6228 2.01821 46.6646 1.38166 46.7684C1.52094 46.9772 1.49446 47.2902 1.30222 47.7075C1.11329 48.0856 0.861347 48.281 0.546387 48.2938C0.909468 48.6398 1.10514 49.1096 1.1334 49.7031C1.16166 50.2966 1.08464 50.7434 0.902329 51.0432C1.1353 51.5358 1.33097 52.0056 1.48934 52.4525C1.64771 52.8994 1.84835 53.3105 2.09125 53.6857C2.33747 54.0218 2.6649 54.3254 3.07356 54.5964C3.48222 54.8675 4.05498 55.0539 4.79184 55.1556C5.23691 54.9962 6.03259 54.8665 7.17888 54.7664C8.36743 54.6305 10.0235 54.5341 12.147 54.4773C13.1698 54.4456 14.5577 54.5039 16.3107 54.6522C18.0638 54.8005 19.8785 54.9146 21.7551 54.9945C23.6349 55.0353 25.4418 55.0108 27.1757 54.921C28.913 54.7921 30.2967 54.4362 31.3269 53.8534C31.3567 53.5012 31.406 53.1507 31.4747 52.8018C31.5434 52.453 31.531 52.1366 31.4373 51.8528C31.3858 51.5332 31.2321 51.264 30.9759 51.0453Z" fill="#D658B3"/>
</svg>
